<?xml version="1.0" encoding="utf-8"?>
<!-- Generator: Adobe Illustrator 16.0.0, SVG Export Plug-In . SVG Version: 6.00 Build 0)  -->
<!DOCTYPE svg PUBLIC "-//W3C//DTD SVG 1.1//EN" "http://www.w3.org/Graphics/SVG/1.1/DTD/svg11.dtd">
<svg version="1.1" id="Layer_1" xmlns="http://www.w3.org/2000/svg" xmlns:xlink="http://www.w3.org/1999/xlink" x="0px" y="0px"
	 width="32px" height="32px" viewBox="0 0 32 32" enable-background="new 0 0 32 32" xml:space="preserve">
<path d="M23.74,8.847h-3.408V7.144h3.408V3.736h1.703v3.407h3.408v1.703h-3.408v3.408H23.74V8.847z M3.149,23.641
	c0-2.402,1.521-5.521,8.629-5.521c-1.055-0.86-1.314-2.064-0.669-3.366c-4.162,0-6.294-2.447-6.294-5.554
	c0-3.04,2.262-5.804,6.873-5.804c1.163,0,7.385,0,7.385,0l-1.65,1.731h-1.939c1.368,0.784,2.095,2.398,2.095,4.177
	c0,1.633-0.898,2.956-2.181,3.948c-2.278,1.762-1.695,2.744,0.691,4.484c2.353,1.763,3.13,3.122,3.13,5.203
	c0,2.556-2.333,5.665-8.2,5.665C6.728,28.604,3.149,26.754,3.149,23.641z M11.82,13.653c1.99,0.06,3.135-1.623,2.792-4.237
	c-0.344-2.614-2.047-4.76-4.037-4.819C8.584,4.538,7.249,6.538,7.593,9.153C7.937,11.768,9.83,13.593,11.82,13.653z M5.933,23.087
	c0,2.256,2.142,4.134,5.107,4.134c3.793,0,5.624-1.763,5.624-4.017c0-2.15-1.96-4.201-5.252-4.201
	C8.446,18.971,5.933,20.877,5.933,23.087z"/>
</svg>
