<?xml version="1.0" encoding="utf-8"?>
<!-- Generator: Adobe Illustrator 16.0.0, SVG Export Plug-In . SVG Version: 6.00 Build 0)  -->
<!DOCTYPE svg PUBLIC "-//W3C//DTD SVG 1.1//EN" "http://www.w3.org/Graphics/SVG/1.1/DTD/svg11.dtd">
<svg version="1.1" id="Layer_1" xmlns="http://www.w3.org/2000/svg" xmlns:xlink="http://www.w3.org/1999/xlink" x="0px" y="0px"
	 width="32px" height="32px" viewBox="0 0 32 32" enable-background="new 0 0 32 32" xml:space="preserve">
<path d="M16,0.417c-8.606,0-15.584,6.976-15.584,15.582c0,8.608,6.978,15.584,15.584,15.584s15.584-6.976,15.584-15.584
	C31.584,7.393,24.606,0.417,16,0.417z M17.222,25.685h-2.231v-2.816h2.231V25.685z M21.062,13.755
	c-0.435,0.691-0.989,1.354-1.661,1.992c-0.549,0.552-0.988,0.98-1.316,1.289c-0.327,0.31-0.57,0.615-0.729,0.918
	c-0.161,0.301-0.268,0.666-0.32,1.102c-0.054,0.435-0.088,1.057-0.105,1.873h-1.674c-0.019-0.816,0.025-1.498,0.132-2.047
	c0.105-0.549,0.278-1.044,0.519-1.486c0.239-0.443,0.559-0.868,0.957-1.276c0.397-0.407,0.879-0.866,1.448-1.381
	c0.495-0.462,0.907-0.974,1.235-1.542c0.327-0.565,0.492-1.195,0.492-1.885c0-0.531-0.103-1.019-0.307-1.464
	c-0.202-0.441-0.476-0.816-0.823-1.128c-0.346-0.31-0.748-0.552-1.208-0.729c-0.462-0.178-0.949-0.267-1.462-0.267
	c-0.708,0-1.337,0.126-1.886,0.374c-0.549,0.247-1,0.588-1.356,1.022c-0.354,0.433-0.62,0.941-0.796,1.526
	c-0.179,0.586-0.257,1.224-0.24,1.913h-1.672c0-0.939,0.132-1.794,0.398-2.562c0.267-0.771,0.659-1.425,1.182-1.967
	c0.523-0.541,1.156-0.962,1.899-1.264c0.745-0.301,1.594-0.451,2.551-0.451c0.745,0,1.439,0.11,2.086,0.334
	c0.647,0.222,1.217,0.543,1.714,0.968c0.496,0.425,0.886,0.939,1.168,1.542c0.284,0.604,0.425,1.293,0.425,2.073
	C21.711,12.223,21.494,13.062,21.062,13.755z"/>
</svg>
