<?xml version="1.0" encoding="utf-8"?>
<!-- Generator: Adobe Illustrator 16.0.0, SVG Export Plug-In . SVG Version: 6.00 Build 0)  -->
<!DOCTYPE svg PUBLIC "-//W3C//DTD SVG 1.1//EN" "http://www.w3.org/Graphics/SVG/1.1/DTD/svg11.dtd">
<svg version="1.1" id="Layer_1" xmlns="http://www.w3.org/2000/svg" xmlns:xlink="http://www.w3.org/1999/xlink" x="0px" y="0px"
	 width="32px" height="32px" viewBox="0 0 32 32" enable-background="new 0 0 32 32" xml:space="preserve">
<g>
	<path d="M18.784,22.243c1.505-0.551,2.644-1.402,3.423-2.556c0.772-1.155,1.161-2.534,1.161-4.138h-4.584V5.393h9.404V15.55
		c0,1.4-0.253,2.709-0.756,3.912c-0.495,1.202-1.18,2.268-2.033,3.197c-0.853,0.926-1.835,1.715-2.97,2.369
		c-1.129,0.652-2.347,1.18-3.646,1.579V22.243z"/>
	<path d="M3.812,22.243c1.504-0.551,2.644-1.402,3.421-2.556c0.782-1.155,1.167-2.534,1.167-4.138H3.812V5.393h9.401V15.55
		c0,1.4-0.249,2.709-0.748,3.912c-0.504,1.202-1.176,2.268-2.03,3.197c-0.857,0.926-1.847,1.715-2.971,2.369
		c-1.131,0.652-2.347,1.18-3.652,1.579V22.243z"/>
</g>
</svg>
