<?xml version="1.0" encoding="utf-8"?>
<!-- Generator: Adobe Illustrator 16.0.0, SVG Export Plug-In . SVG Version: 6.00 Build 0)  -->
<!DOCTYPE svg PUBLIC "-//W3C//DTD SVG 1.1//EN" "http://www.w3.org/Graphics/SVG/1.1/DTD/svg11.dtd">
<svg version="1.1" id="Layer_1" xmlns="http://www.w3.org/2000/svg" xmlns:xlink="http://www.w3.org/1999/xlink" x="0px" y="0px"
	 width="32px" height="32px" viewBox="0 0 32 32" enable-background="new 0 0 32 32" xml:space="preserve">
<path d="M28.286,26.184c-0.005-0.006-0.012-0.01-0.02-0.016l0.001-0.001l-7.398-7.399c1.301-1.672,2.078-3.773,2.078-6.056
	c0-5.452-4.421-9.872-9.873-9.872c-5.451,0-9.871,4.42-9.871,9.872c0,5.453,4.42,9.872,9.871,9.872c1.91,0,3.69-0.542,5.202-1.481
	l7.52,7.52c0.008,0.009,0.014,0.02,0.022,0.029c0.681,0.681,1.786,0.681,2.467,0S28.967,26.865,28.286,26.184z M6.716,12.711
	c0-3.512,2.847-6.359,6.358-6.359c3.513,0,6.36,2.848,6.36,6.359c0,3.512-2.847,6.36-6.36,6.36
	C9.563,19.071,6.716,16.223,6.716,12.711z"/>
</svg>
