<?xml version="1.0" encoding="UTF-8" standalone="no"?>
<!-- Generator: Adobe Illustrator 19.0.0, SVG Export Plug-In . SVG Version: 6.00 Build 0)  -->

<svg
   xmlns:dc="http://purl.org/dc/elements/1.1/"
   xmlns:cc="http://creativecommons.org/ns#"
   xmlns:rdf="http://www.w3.org/1999/02/22-rdf-syntax-ns#"
   xmlns:svg="http://www.w3.org/2000/svg"
   xmlns="http://www.w3.org/2000/svg"
   xmlns:sodipodi="http://sodipodi.sourceforge.net/DTD/sodipodi-0.dtd"
   xmlns:inkscape="http://www.inkscape.org/namespaces/inkscape"
   version="1.1"
   id="Layer_1"
   x="0px"
   y="0px"
   viewBox="20 -220 1000 1000"
   style="enable-background:new 20 -220 1000 1000;"
   xml:space="preserve"
   inkscape:version="0.91 r13725"
   sodipodi:docname="default-avatar-no-background.svg"><metadata
     id="metadata45"><rdf:RDF><cc:Work
         rdf:about=""><dc:format>image/svg+xml</dc:format><dc:type
           rdf:resource="http://purl.org/dc/dcmitype/StillImage" /><dc:title></dc:title></cc:Work></rdf:RDF></metadata><defs
     id="defs43" /><sodipodi:namedview
     pagecolor="#ffffff"
     bordercolor="#666666"
     borderopacity="1"
     objecttolerance="10"
     gridtolerance="10"
     guidetolerance="10"
     inkscape:pageopacity="0"
     inkscape:pageshadow="2"
     inkscape:window-width="731"
     inkscape:window-height="480"
     id="namedview41"
     showgrid="false"
     inkscape:zoom="0.236"
     inkscape:cx="500"
     inkscape:cy="500"
     inkscape:window-x="317"
     inkscape:window-y="346"
     inkscape:window-maximized="0"
     inkscape:current-layer="Layer_1" /><style
     type="text/css"
     id="style3">
	.st0{fill:#EAEAEA;}
	.st1{fill:none;stroke:#555555;stroke-width:24;stroke-linecap:square;stroke-linejoin:round;}
	.st2{fill:none;stroke:#555555;stroke-width:24;stroke-linecap:square;stroke-linejoin:round;stroke-dasharray:88.0204,76.5395;}
	.st3{fill:none;stroke:#555555;stroke-width:24;stroke-linecap:square;stroke-linejoin:round;stroke-dasharray:88.0326,76.5501;}
	.st4{fill:none;stroke:#555555;stroke-width:24;stroke-linecap:square;stroke-linejoin:round;stroke-dasharray:87.9117,76.445;}
	.st5{fill:none;stroke:#555555;stroke-width:24;stroke-linecap:square;stroke-linejoin:round;stroke-dasharray:88.0143,76.5342;}
	.st6{fill:none;stroke:#555555;stroke-width:24;stroke-linecap:square;stroke-linejoin:round;stroke-dasharray:87.9482,76.4767;}
	.st7{fill:#555555;}
	.st8{fill:none;stroke:#555555;stroke-width:20;stroke-linecap:round;stroke-miterlimit:10;}
</style><g
     id="XMLID_377_"><g
       id="g8"><polyline
         class="st1"
         points="788.2,158.7 788.1,124.2 758.2,107.1   "
         id="polyline10" /><line
         class="st2"
         x1="691.7"
         y1="69"
         x2="582.1"
         y2="6.3"
         id="line12" /><polyline
         class="st1"
         points="548.9,-12.8 519,-29.9 489.2,-12.6   "
         id="polyline14" /><line
         class="st3"
         x1="423"
         y1="25.9"
         x2="313.8"
         y2="89.4"
         id="line16" /><polyline
         class="st1"
         points="280.7,108.7 250.9,126 251,160.5   "
         id="polyline18" /><line
         class="st4"
         x1="251.3"
         y1="236.9"
         x2="251.7"
         y2="363.1"
         id="line20" /><polyline
         class="st1"
         points="251.8,401.3 251.9,435.8 281.8,452.9   "
         id="polyline22" /><line
         class="st2"
         x1="348.3"
         y1="491"
         x2="457.9"
         y2="553.7"
         id="line24" /><polyline
         class="st1"
         points="491.1,572.8 521,589.9 550.8,572.6   "
         id="polyline26" /><line
         class="st5"
         x1="617"
         y1="534.1"
         x2="726.2"
         y2="470.7"
         id="line28" /><polyline
         class="st1"
         points="759.3,451.4 789.1,434.1 789,399.6   "
         id="polyline30" /><line
         class="st6"
         x1="788.7"
         y1="323.1"
         x2="788.3"
         y2="196.9"
         id="line32" /></g></g><polygon
     id="XMLID_376_"
     class="st7"
     points="519.8,665.1 352.2,568.4 307.8,594 307.8,594.1 307.8,780 732.8,780 732.8,594.1   732.8,594 687.9,568.4 " /><path
     class="st8"
     d="M403.9,231c0-59.9,81.4-60.1,81.4,0"
     id="path35" /><path
     class="st8"
     d="M554.7,231c0-59.9,81.4-60.1,81.4,0"
     id="path37" /><path
     class="st7"
     d="M580.1,328.9H459.9c-4.4,0-8,3.6-8,8c0,37.5,30.5,68.1,68.1,68.1s68.1-30.5,68.1-68.1  C588.1,332.4,584.5,328.9,580.1,328.9z M491.4,380.4c7.6-8.3,18.6-13.5,30.7-13.5c11.3,0,21.5,4.5,29,11.7  c-8.7,6.5-19.5,10.4-31.1,10.4C509.5,389,499.6,385.8,491.4,380.4z"
     id="path39" /></svg>