<?xml version="1.0" encoding="utf-8"?>
<!-- Generator: Adobe Illustrator 19.0.0, SVG Export Plug-In . SVG Version: 6.00 Build 0)  -->
<!DOCTYPE svg PUBLIC "-//W3C//DTD SVG 1.1//EN" "http://www.w3.org/Graphics/SVG/1.1/DTD/svg11.dtd">
<svg version="1.1" id="Layer_1" xmlns="http://www.w3.org/2000/svg" xmlns:xlink="http://www.w3.org/1999/xlink" x="0px" y="0px"
	 viewBox="200 -200 1000 1000" style="enable-background:new 200 -200 1000 1000;" xml:space="preserve">
<style type="text/css">
	.st0{fill:#EAEAEA;}
	.st1{fill:#555555;}
</style>
<rect x="200" y="-200" class="st0" width="1000" height="1000"/>
<g>
	<polygon class="st1" points="521.5,399.1 506.3,399.1 506.3,106.3 799.1,106.3 799.1,121.5 821.4,121.5 821.4,84 484,84 484,421.4 
		521.5,421.4 	"/>
	<polygon class="st1" points="568.7,446.3 553.4,446.3 553.4,153.4 846.3,153.4 846.3,168.7 868.5,168.7 868.5,131.1 531.1,131.1 
		531.1,468.5 568.7,468.5 	"/>
	<path class="st1" d="M916,516H578.6V178.6H916V516z M600.9,493.7h292.9V200.9H600.9V493.7z"/>
	<polygon class="st1" points="762,260.5 795.7,241.1 829.5,260.5 829.5,299.5 795.7,319 762,299.5 	"/>
	<polygon class="st1" points="880.8,386 825.3,354 790,374.4 694,319 613.8,365.3 613.8,480.8 880.8,480.8 	"/>
</g>
</svg>
