<svg xmlns="http://www.w3.org/2000/svg" viewBox="0 0 485.13 485.13"><defs><style>.a{fill:#87a0f9;}.b{fill:#3b52a2;}.c{fill:#c1c1c1;}.d{fill:#fff;}</style></defs><title>book</title><circle class="a" cx="242.56" cy="242.56" r="242.56"/><path class="b" d="M448.46,209.72H151.54a7.9,7.9,0,0,0-7.9,7.9V417.86a7.9,7.9,0,0,0,7.9,7.9H285.8a16.68,16.68,0,0,0,28.39,0H448.46a7.9,7.9,0,0,0,7.9-7.9V217.61A7.9,7.9,0,0,0,448.46,209.72Z" transform="translate(-57.44 -57.44)"/><rect class="c" x="103.79" y="316.72" width="277.55" height="32.46"/><path class="d" d="M381.31,166.32c-20.44,0-37.83,4.16-51.71,11.57-12.41,6.63-24.1,14.76-29.61,22.38-5.51-7.62-17.2-15.74-29.61-22.38-13.88-7.42-31.26-11.57-51.71-11.57-19.11,0-47.05,2.76-57.46,7.66V406.62c15.72-12.21,51.34-17.56,69.39-17.56s59.31,4.6,69.39,17.56c10.08-13,51.34-17.56,69.39-17.56s53.66,5.36,69.39,17.56V174C428.37,169.08,400.42,166.32,381.31,166.32Z" transform="translate(-57.44 -57.44)"/><path class="c" d="M299,405.47a15,15,0,0,1,1,1.15,15,15,0,0,1,1-1.15V199c-0.35.43-.69,0.87-1,1.3-0.31-.43-0.65-0.86-1-1.3V405.47Z" transform="translate(-57.44 -57.44)"/></svg>