<svg xmlns="http://www.w3.org/2000/svg" viewBox="0 0 618.82 220.95"><defs><style>.a{fill:#ff3d58;}.b{fill:#007ad2;}.c{fill:#f6dac8;}.d{opacity:0.07;}.d,.h,.j{isolation:isolate;}.e{fill:#feffa0;}.f,.j{fill:#333;}.g{fill:#ed2d76;}.h{fill:#aaaab2;}.i{fill:#5168f2;}.j{opacity:0.25;}.k{fill:#fff;}.l{opacity:0.8;}</style></defs><title>commissions-hero-graphic</title><path class="a" d="M442.29,214.54l-50.88-88.12a12.83,12.83,0,0,1,0-12.83l50.88-88.12a12.83,12.83,0,0,1,11.07-6.41H555.11a12.83,12.83,0,0,1,11.11,6.41l50.88,88.12a12.83,12.83,0,0,1,0,12.83l-50.88,88.12A12.83,12.83,0,0,1,555.11,221H453.36A12.83,12.83,0,0,1,442.29,214.54Z" transform="translate(0 0)"/><path class="b" d="M453.36,220.95H555.11a12.82,12.82,0,0,0,4.13-.68c-7.21-22-29.11-38.08-55-38.08s-47.79,16-55,38.08A12.82,12.82,0,0,0,453.36,220.95Z" transform="translate(0 0)"/><circle class="c" cx="504.79" cy="184.67" r="7.6"/><rect class="c" x="497.19" y="167.46" width="15.2" height="16.81"/><circle class="c" cx="555.45" cy="116.8" r="8.64"/><circle class="c" cx="454.14" cy="116.8" r="8.64"/><circle class="c" cx="504.79" cy="119.47" r="51.39"/><path class="d" d="M545.68,88.35a52.84,52.84,0,0,1-72,72A51.38,51.38,0,0,0,545.68,88.35Z" transform="translate(0 0)"/><path class="e" d="M504.8,75.85c25.3,0,46.66,24,53.56,62.49a75.67,75.67,0,0,0,2.35-18.75c0-36.11-25-65.38-55.9-65.38s-55.9,29.27-55.9,65.38a75.67,75.67,0,0,0,2.35,18.75C458.13,99.9,479.5,75.85,504.8,75.85Z" transform="translate(0 0)"/><path class="f" d="M504.8,150.27a15.61,15.61,0,0,0,15.07-11.55,3.27,3.27,0,0,0-3.2-4.06H492.93a3.27,3.27,0,0,0-3.2,4.06A15.61,15.61,0,0,0,504.8,150.27Z" transform="translate(0 0)"/><path class="f" d="M488.05,98.76a9.08,9.08,0,0,0-9.13,7.75,1.56,1.56,0,0,0,.36,1.23,1.25,1.25,0,0,0,1,.43,1.37,1.37,0,0,0,1.29-1.27,6.68,6.68,0,0,1,13,0,1.37,1.37,0,0,0,1.34,1.27,1.23,1.23,0,0,0,.93-0.43,1.56,1.56,0,0,0,.36-1.23A9.08,9.08,0,0,0,488.05,98.76Z" transform="translate(0 0)"/><path class="f" d="M530.68,106.51a9.26,9.26,0,0,0-18.27,0,1.56,1.56,0,0,0,.36,1.23,1.25,1.25,0,0,0,1,.43,1.36,1.36,0,0,0,1.29-1.27,6.68,6.68,0,0,1,13,0,1.37,1.37,0,0,0,1.34,1.27,1.23,1.23,0,0,0,.93-0.43A1.56,1.56,0,0,0,530.68,106.51Z" transform="translate(0 0)"/><rect class="b" x="521.87" y="53.43" width="11.34" height="9.21" rx="2.64" ry="2.64" transform="translate(306.29 540.44) rotate(-71.64)"/><path class="b" d="M526,52.51L511.42,42.42a1.68,1.68,0,0,0-2.55.85l-5.11,15.41a1.68,1.68,0,0,0,1.53,2.22L523,61.51a1.68,1.68,0,0,0,1.65-1.15l2-5.94A1.68,1.68,0,0,0,526,52.51Z" transform="translate(0 0)"/><path class="b" d="M532.12,54.55l17.68,0.61a1.68,1.68,0,0,1,1.49,2.21l-5.11,15.41a1.68,1.68,0,0,1-2.55.85l-14.5-10.08a1.68,1.68,0,0,1-.64-1.91l2-5.94A1.68,1.68,0,0,1,532.12,54.55Z" transform="translate(0 0)"/><path class="g" d="M495.06,146.85a15.57,15.57,0,0,0,19.47,0A10.55,10.55,0,0,0,495.06,146.85Z" transform="translate(0 0)"/><polygon class="h" points="261.05 114.98 269.74 109.96 278.43 114.98 278.43 125.02 269.74 130.04 261.05 125.02 261.05 114.98"/><polygon class="h" points="300.71 114.98 309.41 109.96 318.1 114.98 318.1 125.02 309.41 130.04 300.71 125.02 300.71 114.98"/><polygon class="h" points="340.38 114.98 349.08 109.96 357.77 114.98 357.77 125.02 349.08 130.04 340.38 125.02 340.38 114.98"/><path class="i" d="M52.6,214.54L1.72,126.42a12.83,12.83,0,0,1,0-12.83L52.6,25.47a12.83,12.83,0,0,1,11.11-6.41H165.46a12.83,12.83,0,0,1,11.11,6.41l50.88,88.12a12.83,12.83,0,0,1,0,12.83l-50.88,88.12A12.83,12.83,0,0,1,165.46,221H63.71A12.83,12.83,0,0,1,52.6,214.54Z" transform="translate(0 0)"/><path class="a" d="M63.71,220.95H165.46a12.82,12.82,0,0,0,4.13-.68c-7.21-22-29.11-38.08-55-38.08s-47.79,16-55,38.08A12.82,12.82,0,0,0,63.71,220.95Z" transform="translate(0 0)"/><circle class="c" cx="115.15" cy="184.63" r="7.6"/><rect class="c" x="107.54" y="167.42" width="15.2" height="16.81"/><circle class="c" cx="165.81" cy="117.37" r="8.64"/><circle class="c" cx="64.49" cy="117.37" r="8.64"/><circle class="c" cx="115.87" cy="120.04" r="51.39"/><path class="d" d="M156.76,88.92a52.84,52.84,0,0,1-72,72A51.38,51.38,0,0,0,156.76,88.92Z" transform="translate(0 0)"/><path class="f" d="M115.88,73.47a52.39,52.39,0,0,1,52.06,46.59,52.39,52.39,0,1,0-104.12,0A52.39,52.39,0,0,1,115.88,73.47Z" transform="translate(0 0)"/><path class="f" d="M115.88,150.83A15.61,15.61,0,0,0,131,139.28a3.27,3.27,0,0,0-3.2-4.06H104a3.27,3.27,0,0,0-3.2,4.06A15.61,15.61,0,0,0,115.88,150.83Z" transform="translate(0 0)"/><path class="f" d="M99.13,99.32A9.08,9.08,0,0,0,90,107.07a1.56,1.56,0,0,0,.36,1.23,1.25,1.25,0,0,0,1,.43,1.37,1.37,0,0,0,1.29-1.27,6.68,6.68,0,0,1,13,0,1.37,1.37,0,0,0,1.34,1.27,1.23,1.23,0,0,0,.93-0.43,1.56,1.56,0,0,0,.37-1.24A9.08,9.08,0,0,0,99.13,99.32Z" transform="translate(0 0)"/><path class="f" d="M141.76,107.06a9.26,9.26,0,0,0-18.27,0,1.56,1.56,0,0,0,.36,1.23,1.25,1.25,0,0,0,1,.43,1.36,1.36,0,0,0,1.29-1.27,6.68,6.68,0,0,1,13,0,1.37,1.37,0,0,0,1.34,1.27,1.23,1.23,0,0,0,.93-0.43A1.56,1.56,0,0,0,141.76,107.06Z" transform="translate(0 0)"/><path class="g" d="M106.14,147.42a15.57,15.57,0,0,0,19.47,0A10.55,10.55,0,0,0,106.14,147.42Z" transform="translate(0 0)"/><rect class="f" x="110.71" y="185.22" width="9.21" height="11.34" rx="2.64" ry="2.64"/><path class="f" d="M112.07,186.15l-17-5a1.68,1.68,0,0,0-2.15,1.61v16.3a1.68,1.68,0,0,0,2.15,1.61l17-5a1.68,1.68,0,0,0,1.22-1.61v-6.3A1.68,1.68,0,0,0,112.07,186.15Z" transform="translate(0 0)"/><path class="f" d="M118.56,186.15l17-5a1.68,1.68,0,0,1,2.15,1.61v16.3a1.68,1.68,0,0,1-2.15,1.61l-17-5a1.68,1.68,0,0,1-1.21-1.61v-6.3A1.68,1.68,0,0,1,118.56,186.15Z" transform="translate(0 0)"/><path class="j" d="M205,0a57.8,57.8,0,0,0-43.72,95.58l-3.37,15.55,17.33-3.76A57.82,57.82,0,1,0,205,0Z" transform="translate(0 0)"/><path class="k" d="M205,4.31a53.51,53.51,0,0,0-44.63,83l-4.5,20.78,21.27-4.61A53.51,53.51,0,1,0,205,4.31Z" transform="translate(0 0)"/><g class="l"><path class="f" d="M169.55,52.93l6.8-3.93a1.11,1.11,0,0,1,1.11,0l6.8,3.93a1.11,1.11,0,0,1,.55,1v7.85a1.11,1.11,0,0,1-.55,1l-6.8,3.93a1.11,1.11,0,0,1-1.11,0l-6.8-3.93a1.11,1.11,0,0,1-.55-1V53.89A1.11,1.11,0,0,1,169.55,52.93Z" transform="translate(0 0)"/><path class="f" d="M197.66,52.93l6.8-3.93a1.11,1.11,0,0,1,1.11,0l6.8,3.93a1.11,1.11,0,0,1,.55,1v7.85a1.11,1.11,0,0,1-.55,1l-6.8,3.93a1.11,1.11,0,0,1-1.11,0l-6.8-3.93a1.11,1.11,0,0,1-.55-1V53.89A1.11,1.11,0,0,1,197.66,52.93Z" transform="translate(0 0)"/><path class="f" d="M225.77,52.93l6.8-3.93a1.11,1.11,0,0,1,1.11,0l6.8,3.93a1.11,1.11,0,0,1,.55,1v7.85a1.11,1.11,0,0,1-.55,1l-6.8,3.93a1.11,1.11,0,0,1-1.11,0l-6.8-3.93a1.11,1.11,0,0,1-.55-1V53.89A1.11,1.11,0,0,1,225.77,52.93Z" transform="translate(0 0)"/></g></svg>