<svg xmlns="http://www.w3.org/2000/svg" viewBox="0 0 618.81 220.95"><defs><style>.a{fill:#ff3d58;}.b{fill:#007ad2;}.c{fill:#f6dac8;}.d{opacity:0.07;}.e{fill:#feffa0;}.f,.i{fill:#fff;}.g,.k{fill:#333;}.h{fill:#ed2d76;}.i{opacity:0.7;}.j{fill:#5168f2;}.k{opacity:0.15;}.l{opacity:0.8;}</style></defs><title>commissions-hero-graphic</title><path class="a" d="M472,240.48l-50.88-88.12a12.83,12.83,0,0,1,0-12.83L472,51.41A12.83,12.83,0,0,1,483.07,45H584.82a12.83,12.83,0,0,1,11.11,6.41l50.88,88.12a12.83,12.83,0,0,1,0,12.83l-50.88,88.12a12.83,12.83,0,0,1-11.11,6.41H483.07A12.83,12.83,0,0,1,472,240.48Z" transform="translate(-29.71 -25.94)"/><path class="b" d="M483.07,246.89H584.82a12.82,12.82,0,0,0,4.13-.68c-7.21-22-29.11-38.08-55-38.08s-47.79,16-55,38.08A12.82,12.82,0,0,0,483.07,246.89Z" transform="translate(-29.71 -25.94)"/><circle class="c" cx="504.79" cy="184.67" r="7.6"/><rect class="c" x="497.19" y="167.46" width="15.2" height="16.81"/><circle class="c" cx="555.45" cy="116.8" r="8.64"/><circle class="c" cx="454.14" cy="116.8" r="8.64"/><circle class="c" cx="504.79" cy="119.47" r="51.39"/><path class="d" d="M575.39,114.29a52.84,52.84,0,0,1-72,72A51.38,51.38,0,0,0,575.39,114.29Z" transform="translate(-29.71 -25.94)"/><path class="e" d="M534.51,101.79c25.3,0,46.66,24,53.56,62.49a75.67,75.67,0,0,0,2.35-18.75c0-36.11-25-65.38-55.9-65.38s-55.9,29.27-55.9,65.38a75.67,75.67,0,0,0,2.35,18.75C487.84,125.84,509.21,101.79,534.51,101.79Z" transform="translate(-29.71 -25.94)"/><path class="f" d="M534.51,176.21a15.61,15.61,0,0,0,15.07-11.55,3.27,3.27,0,0,0-3.2-4.06H522.64a3.27,3.27,0,0,0-3.2,4.06A15.61,15.61,0,0,0,534.51,176.21Z" transform="translate(-29.71 -25.94)"/><path class="g" d="M517.76,124.7a9.08,9.08,0,0,0-9.13,7.75,1.56,1.56,0,0,0,.36,1.23,1.25,1.25,0,0,0,1,.43,1.37,1.37,0,0,0,1.29-1.27,6.68,6.68,0,0,1,13,0,1.37,1.37,0,0,0,1.34,1.27,1.23,1.23,0,0,0,.93-0.43,1.56,1.56,0,0,0,.36-1.23A9.08,9.08,0,0,0,517.76,124.7Z" transform="translate(-29.71 -25.94)"/><path class="g" d="M560.39,132.45a9.26,9.26,0,0,0-18.27,0,1.56,1.56,0,0,0,.36,1.23,1.25,1.25,0,0,0,1,.43,1.36,1.36,0,0,0,1.29-1.27,6.68,6.68,0,0,1,13,0,1.37,1.37,0,0,0,1.34,1.27,1.23,1.23,0,0,0,.93-0.43A1.56,1.56,0,0,0,560.39,132.45Z" transform="translate(-29.71 -25.94)"/><path class="g" d="M534.51,176.21a15.61,15.61,0,0,1-15.07-11.55,3.27,3.27,0,0,1,3.2-4.06h23.74a3.27,3.27,0,0,1,3.2,4.06A15.61,15.61,0,0,1,534.51,176.21Z" transform="translate(-29.71 -25.94)"/><rect class="b" x="552.65" y="78.3" width="9.21" height="11.34" rx="2.64" ry="2.64" transform="translate(25.1 -197.19) rotate(18.36)"/><path class="b" d="M555.67,78.45L541.13,68.36a1.68,1.68,0,0,0-2.55.85l-5.11,15.41A1.68,1.68,0,0,0,535,86.84l17.68,0.61a1.68,1.68,0,0,0,1.65-1.15l2-5.94A1.68,1.68,0,0,0,555.67,78.45Z" transform="translate(-29.71 -25.94)"/><path class="b" d="M561.83,80.49l17.68,0.61A1.68,1.68,0,0,1,581,83.31l-5.11,15.41a1.68,1.68,0,0,1-2.55.85L558.84,89.49a1.68,1.68,0,0,1-.64-1.91l2-5.94A1.68,1.68,0,0,1,561.83,80.49Z" transform="translate(-29.71 -25.94)"/><path class="h" d="M524.77,172.79a15.57,15.57,0,0,0,19.47,0A10.55,10.55,0,0,0,524.77,172.79Z" transform="translate(-29.71 -25.94)"/><polygon class="i" points="261.05 114.98 269.74 109.96 278.43 114.98 278.43 125.02 269.74 130.04 261.05 125.02 261.05 114.98"/><polygon class="i" points="300.71 114.98 309.41 109.96 318.1 114.98 318.1 125.02 309.41 130.04 300.71 125.02 300.71 114.98"/><polygon class="i" points="340.38 114.98 349.08 109.96 357.77 114.98 357.77 125.02 349.08 130.04 340.38 125.02 340.38 114.98"/><path class="j" d="M82.31,240.48L31.43,152.36a12.83,12.83,0,0,1,0-12.83L82.31,51.41A12.83,12.83,0,0,1,93.42,45H195.17a12.83,12.83,0,0,1,11.11,6.41l50.88,88.12a12.83,12.83,0,0,1,0,12.83l-50.88,88.12a12.83,12.83,0,0,1-11.11,6.41H93.42A12.83,12.83,0,0,1,82.31,240.48Z" transform="translate(-29.71 -25.94)"/><path class="a" d="M93.42,246.89H195.17a12.82,12.82,0,0,0,4.13-.68c-7.21-22-29.11-38.08-55-38.08s-47.79,16-55,38.08A12.82,12.82,0,0,0,93.42,246.89Z" transform="translate(-29.71 -25.94)"/><circle class="c" cx="115.15" cy="184.63" r="7.6"/><rect class="c" x="107.54" y="167.42" width="15.2" height="16.81"/><circle class="c" cx="165.81" cy="117.37" r="8.64"/><circle class="c" cx="64.49" cy="117.37" r="8.64"/><circle class="c" cx="115.87" cy="120.04" r="51.39"/><path class="d" d="M186.47,114.86a52.84,52.84,0,0,1-72,72A51.38,51.38,0,0,0,186.47,114.86Z" transform="translate(-29.71 -25.94)"/><path class="g" d="M145.59,99.41A52.39,52.39,0,0,1,197.65,146a52.39,52.39,0,1,0-104.12,0A52.39,52.39,0,0,1,145.59,99.41Z" transform="translate(-29.71 -25.94)"/><path class="g" d="M145.59,176.77a15.61,15.61,0,0,0,15.07-11.55,3.27,3.27,0,0,0-3.2-4.06H133.72a3.27,3.27,0,0,0-3.2,4.06A15.61,15.61,0,0,0,145.59,176.77Z" transform="translate(-29.71 -25.94)"/><path class="g" d="M128.84,125.26a9.08,9.08,0,0,0-9.13,7.75,1.56,1.56,0,0,0,.36,1.23,1.25,1.25,0,0,0,1,.43,1.37,1.37,0,0,0,1.29-1.27,6.68,6.68,0,0,1,13,0,1.37,1.37,0,0,0,1.34,1.27,1.23,1.23,0,0,0,.93-0.43A1.56,1.56,0,0,0,138,133,9.08,9.08,0,0,0,128.84,125.26Z" transform="translate(-29.71 -25.94)"/><path class="g" d="M171.47,133a9.26,9.26,0,0,0-18.27,0,1.56,1.56,0,0,0,.36,1.23,1.25,1.25,0,0,0,1,.43,1.36,1.36,0,0,0,1.29-1.27,6.68,6.68,0,0,1,13,0,1.37,1.37,0,0,0,1.34,1.27,1.23,1.23,0,0,0,.93-0.43A1.56,1.56,0,0,0,171.47,133Z" transform="translate(-29.71 -25.94)"/><path class="h" d="M135.85,173.36a15.57,15.57,0,0,0,19.47,0A10.55,10.55,0,0,0,135.85,173.36Z" transform="translate(-29.71 -25.94)"/><rect class="g" x="110.71" y="185.22" width="9.21" height="11.34" rx="2.64" ry="2.64"/><path class="g" d="M141.78,212.09l-17-5a1.68,1.68,0,0,0-2.15,1.61V225a1.68,1.68,0,0,0,2.15,1.61l17-5A1.68,1.68,0,0,0,143,220V213.7A1.68,1.68,0,0,0,141.78,212.09Z" transform="translate(-29.71 -25.94)"/><path class="g" d="M148.27,212.09l17-5a1.68,1.68,0,0,1,2.15,1.61V225a1.68,1.68,0,0,1-2.15,1.61l-17-5a1.68,1.68,0,0,1-1.21-1.61V213.7A1.68,1.68,0,0,1,148.27,212.09Z" transform="translate(-29.71 -25.94)"/><path class="k" d="M234.72,25.94A57.8,57.8,0,0,0,191,121.52l-3.37,15.55,17.33-3.76A57.82,57.82,0,1,0,234.72,25.94Z" transform="translate(-29.71 -25.94)"/><circle class="f" cx="205.01" cy="57.82" r="53.51"/><polygon class="f" points="183.01 102.24 155.88 108.12 161.76 80.99 183.01 102.24"/><g class="l"><path class="g" d="M199.26,78.87l6.8-3.93a1.11,1.11,0,0,1,1.11,0l6.8,3.93a1.11,1.11,0,0,1,.55,1v7.85a1.11,1.11,0,0,1-.55,1l-6.8,3.93a1.11,1.11,0,0,1-1.11,0l-6.8-3.93a1.11,1.11,0,0,1-.55-1V79.83A1.11,1.11,0,0,1,199.26,78.87Z" transform="translate(-29.71 -25.94)"/><path class="g" d="M227.37,78.87l6.8-3.93a1.11,1.11,0,0,1,1.11,0l6.8,3.93a1.11,1.11,0,0,1,.55,1v7.85a1.11,1.11,0,0,1-.55,1l-6.8,3.93a1.11,1.11,0,0,1-1.11,0l-6.8-3.93a1.11,1.11,0,0,1-.55-1V79.83A1.11,1.11,0,0,1,227.37,78.87Z" transform="translate(-29.71 -25.94)"/><path class="g" d="M255.48,78.87l6.8-3.93a1.11,1.11,0,0,1,1.11,0l6.8,3.93a1.11,1.11,0,0,1,.55,1v7.85a1.11,1.11,0,0,1-.55,1l-6.8,3.93a1.11,1.11,0,0,1-1.11,0l-6.8-3.93a1.11,1.11,0,0,1-.55-1V79.83A1.11,1.11,0,0,1,255.48,78.87Z" transform="translate(-29.71 -25.94)"/></g></svg>