<svg xmlns="http://www.w3.org/2000/svg" viewBox="0 0 634 425.4"><defs><style>.a{fill:#ff3d58;}.b{fill:#007ad2;}.c{fill:#f6dac8;}.d{opacity:0.07;}.e{fill:#feffa0;}.f{fill:#fff;}.g,.j{fill:#333;}.h{fill:#ed2d76;}.i,.q,.r,.s,.t,.u{fill:#5168f2;}.j{opacity:0.25;}.k{opacity:0.8;}.l,.m,.n,.o,.p{fill:#ff1600;}.l,.q{opacity:0.9;}.m,.r{opacity:0.75;}.n,.s{opacity:0.6;}.o,.t{opacity:0.45;}.p,.u{opacity:0.3;}</style></defs><title>commissions-hero-graphic</title><path class="a" d="M439.61,545l-53.19-92.13a13.41,13.41,0,0,1,0-13.41l53.19-92.13a13.41,13.41,0,0,1,11.62-6.71H557.6a13.41,13.41,0,0,1,11.62,6.71l53.19,92.13a13.41,13.41,0,0,1,0,13.41L569.21,545a13.41,13.41,0,0,1-11.62,6.71H451.22A13.41,13.41,0,0,1,439.61,545Z" transform="translate(-22 -126.3)"/><path class="b" d="M451.22,551.7H557.6a13.4,13.4,0,0,0,4.32-.71c-7.54-23-30.43-39.81-57.51-39.81s-50,16.76-57.51,39.81A13.4,13.4,0,0,0,451.22,551.7Z" transform="translate(-22 -126.3)"/><circle class="c" cx="483" cy="387.47" r="7.95"/><rect class="c" x="475.05" y="369.47" width="15.9" height="17.57"/><circle class="c" cx="535.96" cy="316.52" r="9.04"/><circle class="c" cx="430.04" cy="316.52" r="9.04"/><circle class="c" cx="483" cy="319.31" r="53.72"/><path class="d" d="M547.74,413.08a55.24,55.24,0,0,1-75.28,75.27A53.71,53.71,0,0,0,547.74,413.08Z" transform="translate(-22 -126.3)"/><path class="e" d="M505,400c26.45,0,48.79,25.14,56,65.33a79.11,79.11,0,0,0,2.45-19.6c0-37.75-26.17-68.35-58.44-68.35s-58.44,30.6-58.44,68.35a79.11,79.11,0,0,0,2.45,19.6C456.21,425.14,478.55,400,505,400Z" transform="translate(-22 -126.3)"/><path class="f" d="M505,477.81a16.32,16.32,0,0,0,15.76-12.07,3.42,3.42,0,0,0-3.35-4.24H492.59a3.42,3.42,0,0,0-3.35,4.24A16.32,16.32,0,0,0,505,477.81Z" transform="translate(-22 -126.3)"/><path class="g" d="M487.49,424a9.49,9.49,0,0,0-9.55,8.11,1.63,1.63,0,0,0,.38,1.29,1.31,1.31,0,0,0,1,.45,1.43,1.43,0,0,0,1.35-1.33c0.4-3.09,3.32-5.41,6.8-5.41s6.4,2.33,6.8,5.41a1.44,1.44,0,0,0,1.4,1.33,1.28,1.28,0,0,0,1-.45,1.63,1.63,0,0,0,.38-1.29A9.49,9.49,0,0,0,487.49,424Z" transform="translate(-22 -126.3)"/><path class="g" d="M532.06,432.06a9.68,9.68,0,0,0-19.1,0,1.63,1.63,0,0,0,.38,1.29,1.31,1.31,0,0,0,1,.45,1.43,1.43,0,0,0,1.35-1.33c0.4-3.09,3.32-5.41,6.8-5.41s6.4,2.33,6.8,5.41a1.44,1.44,0,0,0,1.4,1.33,1.28,1.28,0,0,0,1-.45A1.63,1.63,0,0,0,532.06,432.06Z" transform="translate(-22 -126.3)"/><path class="g" d="M505,477.81a16.32,16.32,0,0,1-15.76-12.07,3.42,3.42,0,0,1,3.35-4.24h24.82a3.42,3.42,0,0,1,3.35,4.24A16.32,16.32,0,0,1,505,477.81Z" transform="translate(-22 -126.3)"/><rect class="b" x="523.97" y="375.45" width="9.62" height="11.85" rx="2.76" ry="2.76" transform="translate(125.03 -273.44) rotate(18.36)"/><path class="b" d="M527.12,375.6l-15.2-10.54a1.76,1.76,0,0,0-2.67.89l-5.35,16.11a1.76,1.76,0,0,0,1.61,2.31L524,385a1.76,1.76,0,0,0,1.73-1.2l2.06-6.21A1.76,1.76,0,0,0,527.12,375.6Z" transform="translate(-22 -126.3)"/><path class="b" d="M533.56,377.73L552,378.37a1.76,1.76,0,0,1,1.61,2.31l-5.35,16.11a1.76,1.76,0,0,1-2.67.89l-15.2-10.54a1.76,1.76,0,0,1-.67-2l2.06-6.21A1.76,1.76,0,0,1,533.56,377.73Z" transform="translate(-22 -126.3)"/><path class="h" d="M494.82,474.23a16.28,16.28,0,0,0,20.35,0A11,11,0,0,0,494.82,474.23Z" transform="translate(-22 -126.3)"/><path class="i" d="M77,330.67L23.8,238.54a13.41,13.41,0,0,1,0-13.41L77,133A13.41,13.41,0,0,1,88.6,126.3H195A13.41,13.41,0,0,1,206.6,133l53.19,92.13a13.41,13.41,0,0,1,0,13.41L206.6,330.67A13.41,13.41,0,0,1,195,337.38H88.6A13.41,13.41,0,0,1,77,330.67Z" transform="translate(-22 -126.3)"/><path class="a" d="M88.6,337.38H195a13.4,13.4,0,0,0,4.32-.71c-7.54-23-30.43-39.81-57.51-39.81s-50,16.76-57.51,39.81A13.4,13.4,0,0,0,88.6,337.38Z" transform="translate(-22 -126.3)"/><circle class="c" cx="120.38" cy="173.11" r="7.95"/><rect class="c" x="112.43" y="155.11" width="15.9" height="17.57"/><circle class="c" cx="173.34" cy="102.78" r="9.04"/><circle class="c" cx="67.42" cy="102.78" r="9.04"/><circle class="c" cx="121.14" cy="105.58" r="53.72"/><path class="d" d="M185.88,199.34a55.24,55.24,0,0,1-75.28,75.27A53.71,53.71,0,0,0,185.88,199.34Z" transform="translate(-22 -126.3)"/><path class="g" d="M143.14,183.19a54.77,54.77,0,0,1,54.43,48.69,54.77,54.77,0,1,0-108.85,0A54.77,54.77,0,0,1,143.14,183.19Z" transform="translate(-22 -126.3)"/><path class="g" d="M143.14,264.07A16.32,16.32,0,0,0,158.9,252a3.42,3.42,0,0,0-3.35-4.24H130.73a3.42,3.42,0,0,0-3.35,4.24A16.32,16.32,0,0,0,143.14,264.07Z" transform="translate(-22 -126.3)"/><path class="g" d="M125.63,210.22a9.49,9.49,0,0,0-9.55,8.11,1.63,1.63,0,0,0,.38,1.29,1.31,1.31,0,0,0,1,.45,1.43,1.43,0,0,0,1.35-1.33c0.4-3.09,3.32-5.41,6.8-5.41s6.4,2.33,6.8,5.41a1.44,1.44,0,0,0,1.4,1.33,1.28,1.28,0,0,0,1-.45,1.63,1.63,0,0,0,.38-1.29A9.49,9.49,0,0,0,125.63,210.22Z" transform="translate(-22 -126.3)"/><path class="g" d="M170.2,218.32a9.68,9.68,0,0,0-19.1,0,1.63,1.63,0,0,0,.38,1.29,1.31,1.31,0,0,0,1,.45,1.43,1.43,0,0,0,1.35-1.33c0.4-3.09,3.32-5.41,6.8-5.41s6.4,2.33,6.8,5.41a1.44,1.44,0,0,0,1.4,1.33,1.28,1.28,0,0,0,1-.45A1.63,1.63,0,0,0,170.2,218.32Z" transform="translate(-22 -126.3)"/><path class="h" d="M133,260.5a16.28,16.28,0,0,0,20.35,0A11,11,0,0,0,133,260.5Z" transform="translate(-22 -126.3)"/><rect class="g" x="115.74" y="173.73" width="9.62" height="11.85" rx="2.76" ry="2.76"/><path class="g" d="M139.16,301l-17.74-5.22a1.76,1.76,0,0,0-2.25,1.68v17a1.76,1.76,0,0,0,2.25,1.68l17.74-5.22a1.76,1.76,0,0,0,1.26-1.68v-6.55A1.76,1.76,0,0,0,139.16,301Z" transform="translate(-22 -126.3)"/><path class="g" d="M145.94,301l17.74-5.22a1.76,1.76,0,0,1,2.25,1.68v17a1.76,1.76,0,0,1-2.25,1.68l-17.74-5.22a1.76,1.76,0,0,1-1.26-1.68v-6.55A1.76,1.76,0,0,1,145.94,301Z" transform="translate(-22 -126.3)"/><path class="j" d="M595.56,320.93a60.42,60.42,0,0,0-45.75,99.92l-3.52,16.25,18.12-3.93A60.44,60.44,0,1,0,595.56,320.93Z" transform="translate(-22 -126.3)"/><circle class="f" cx="573.56" cy="255.07" r="55.94"/><polygon class="f" points="550.56 301.51 522.2 307.66 528.34 279.3 550.56 301.51"/><g class="k"><path class="g" d="M558.48,376.26l7.11-4.1a1.16,1.16,0,0,1,1.16,0l7.11,4.1a1.16,1.16,0,0,1,.58,1v8.21a1.16,1.16,0,0,1-.58,1l-7.11,4.1a1.16,1.16,0,0,1-1.16,0l-7.11-4.1a1.16,1.16,0,0,1-.58-1v-8.21A1.16,1.16,0,0,1,558.48,376.26Z" transform="translate(-22 -126.3)"/><path class="g" d="M587.87,376.26l7.11-4.1a1.16,1.16,0,0,1,1.16,0l7.11,4.1a1.16,1.16,0,0,1,.58,1v8.21a1.16,1.16,0,0,1-.58,1l-7.11,4.1a1.16,1.16,0,0,1-1.16,0l-7.11-4.1a1.16,1.16,0,0,1-.58-1v-8.21A1.16,1.16,0,0,1,587.87,376.26Z" transform="translate(-22 -126.3)"/><path class="g" d="M617.26,376.26l7.11-4.1a1.16,1.16,0,0,1,1.16,0l7.11,4.1a1.16,1.16,0,0,1,.58,1v8.21a1.16,1.16,0,0,1-.58,1l-7.11,4.1a1.16,1.16,0,0,1-1.16,0l-7.11-4.1a1.16,1.16,0,0,1-.58-1v-8.21A1.16,1.16,0,0,1,617.26,376.26Z" transform="translate(-22 -126.3)"/></g><polygon class="l" points="263.04 120.08 257.79 111 263.04 101.91 273.53 101.91 278.78 111 273.53 120.08 263.04 120.08"/><polygon class="m" points="309.05 120.08 303.81 111 309.05 101.91 319.54 101.91 324.79 111 319.54 120.08 309.05 120.08"/><polygon class="n" points="355.07 120.08 349.82 111 355.07 101.91 365.56 101.91 370.81 111 365.56 120.08 355.07 120.08"/><polygon class="o" points="372.83 150.85 378.07 141.76 388.57 141.76 393.81 150.85 388.57 159.94 378.07 159.94 372.83 150.85"/><polygon class="p" points="395.84 190.7 401.08 181.61 411.57 181.61 416.82 190.7 411.57 199.79 401.08 199.79 395.84 190.7"/><polygon class="q" points="338.56 308.09 343.8 317.17 338.56 326.26 328.06 326.26 322.82 317.17 328.06 308.09 338.56 308.09"/><polygon class="r" points="292.54 308.09 297.79 317.17 292.54 326.26 282.05 326.26 276.8 317.17 282.05 308.09 292.54 308.09"/><polygon class="s" points="246.52 308.09 251.77 317.17 246.52 326.26 236.03 326.26 230.78 317.17 236.03 308.09 246.52 308.09"/><polygon class="t" points="228.76 277.32 223.52 286.41 213.02 286.41 207.78 277.32 213.02 268.24 223.52 268.24 228.76 277.32"/><polygon class="u" points="205.75 237.47 200.51 246.56 190.02 246.56 184.77 237.47 190.02 228.39 200.51 228.39 205.75 237.47"/></svg>