<svg xmlns="http://www.w3.org/2000/svg" viewBox="0 0 400 400"><defs><style>.a{fill:none;}.b{fill:#9f0321;}.c{fill:#e1032e;}</style></defs><title>commissions-promo-icons</title><path class="a" d="M0,0H400V400H0V0Z"/><path class="b" d="M126.33,68L102.5,44.17A173.75,173.75,0,0,0,33.83,175H67.17A140.76,140.76,0,0,1,126.33,68Z"/><path class="b" d="M332.83,175h33.33A174.81,174.81,0,0,0,297.5,44.17L273.83,68A141.59,141.59,0,0,1,332.83,175Z"/><path class="c" d="M300,183.33c0-51.17-27.33-94-75-105.33V66.67a25,25,0,1,0-50,0V78c-47.83,11.33-75,54-75,105.33v83.33L66.67,300v16.67H333.33V300L300,266.67V183.33Z"/><path class="c" d="M200,366.67a29.2,29.2,0,0,0,6.67-.67,33.82,33.82,0,0,0,24-19.67,33.46,33.46,0,0,0,2.5-13H166.5A33.57,33.57,0,0,0,200,366.67Z"/></svg>