<svg xmlns="http://www.w3.org/2000/svg" viewBox="0 0 400 400"><defs><style>.a{fill:none;}.b{fill:#3b52a2;}.c{fill:#87a0f9;}</style></defs><title>icon-calculator</title><path class="a" d="M0,0H400V400H0V0Z"/><path class="b" d="M288.13,23.19L110.24,23A35.68,35.68,0,0,0,74.67,58.59V341.41A35.68,35.68,0,0,0,110.24,377H288.13a35.68,35.68,0,0,0,35.58-35.58V58.59A35.53,35.53,0,0,0,288.13,23.19ZM161.5,334.87H110.36V283.73H161.5v51.14Zm0-63.24H110.36V220.49H161.5v51.14Zm0-63.26H110.36V157.23H161.5v51.14Zm63.26,126.5H173.62V283.73h51.14v51.14Zm0-63.24H173.62V220.49h51.14v51.14Zm0-63.26H173.62V157.23h51.14v51.14ZM288,334.87H236.88V220.49H288V334.87Zm0-126.5H236.88V157.23H288v51.14Z"/><rect class="c" x="110.36" y="65.13" width="177.66" height="55.1"/></svg>