<svg xmlns="http://www.w3.org/2000/svg" viewBox="0 0 400 400"><defs><style>.a{fill:none;}.b{fill:#e1032e;}</style></defs><title>commissions-promo-icons</title><path class="a" d="M0,0H400V400H0V0Z"/><path class="b" d="M199.83,33.33c-92,0-166.5,74.67-166.5,166.67s74.5,166.67,166.5,166.67C292,366.67,366.67,292,366.67,200S292,33.33,199.83,33.33Zm115.5,100H266.17a260.82,260.82,0,0,0-23-59.33A133.83,133.83,0,0,1,315.33,133.33ZM200,67.33a234.78,234.78,0,0,1,31.83,66H168.17A234.78,234.78,0,0,1,200,67.33Zm-129,166a130.37,130.37,0,0,1,0-66.67h56.33A275.26,275.26,0,0,0,125,200a275.26,275.26,0,0,0,2.33,33.33H71Zm13.67,33.33h49.17a260.82,260.82,0,0,0,23,59.33A133.11,133.11,0,0,1,84.67,266.67Zm49.17-133.33H84.67A133.11,133.11,0,0,1,156.83,74,260.82,260.82,0,0,0,133.83,133.33ZM200,332.67a234.78,234.78,0,0,1-31.83-66h63.67A234.78,234.78,0,0,1,200,332.67Zm39-99.33H161A245.21,245.21,0,0,1,158.33,200,243.08,243.08,0,0,1,161,166.67h78A243.08,243.08,0,0,1,241.67,200,245.21,245.21,0,0,1,239,233.33ZM243.17,326a260.82,260.82,0,0,0,23-59.33h49.17A133.83,133.83,0,0,1,243.17,326Zm29.5-92.67A275.26,275.26,0,0,0,275,200a275.26,275.26,0,0,0-2.33-33.33H329a130.37,130.37,0,0,1,0,66.67H272.67Z"/></svg>