<svg xmlns="http://www.w3.org/2000/svg" viewBox="0 0 400 400"><defs><style>.a{fill:none;}.b{fill:#87a0f9;}.c{fill:#3b52a2;}</style></defs><title>commissions-promo-icons</title><path class="a" d="M0,0H400V400H0V0Z"/><path class="b" d="M116.67,233.33a49.93,49.93,0,0,0-50,50c0,21.83-19.33,33.33-33.33,33.33C48.67,337,74.83,350,100,350a66.65,66.65,0,0,0,66.67-66.67A49.93,49.93,0,0,0,116.67,233.33Z"/><path class="c" d="M345.17,77.17L322.83,54.83a16.6,16.6,0,0,0-23.5,0L150,204.17,195.83,250,345.17,100.67A16.6,16.6,0,0,0,345.17,77.17Z"/></svg>