<svg xmlns="http://www.w3.org/2000/svg" viewBox="0 0 400 400"><defs><style>.a{fill:#87a0f9;}.b{fill:#3b52a2;}.c{fill:none;}</style></defs><title>commissions-promo-icons</title><polygon class="a" points="316.67 200 283.33 200 283.33 250 233.33 250 233.33 283.33 316.67 283.33 316.67 200"/><polygon class="a" points="116.67 150 166.67 150 166.67 116.67 83.33 116.67 83.33 200 116.67 200 116.67 150"/><path class="b" d="M350,50H50A33.43,33.43,0,0,0,16.67,83.33V316.67A33.43,33.43,0,0,0,50,350H350a33.43,33.43,0,0,0,33.33-33.33V83.33A33.43,33.43,0,0,0,350,50Zm0,266.83H50V83.17H350V316.83Z"/><path class="c" d="M0,0H400V400H0V0Z"/></svg>