<svg xmlns="http://www.w3.org/2000/svg" viewBox="0 0 400 400"><defs><style>.a{fill:none;}.b{fill:#3b52a2;}</style></defs><title>commissions-promo-icons</title><path class="a" d="M0,0H400V400H0V0Z"/><path class="b" d="M356.83,193l-150-150a33.12,33.12,0,0,0-23.5-9.67H66.67A33.43,33.43,0,0,0,33.33,66.67V183.33A33.26,33.26,0,0,0,43.17,207l150,150a33.12,33.12,0,0,0,23.5,9.67,32.59,32.59,0,0,0,23.5-9.83L356.83,240.17a32.59,32.59,0,0,0,9.83-23.5A33.66,33.66,0,0,0,356.83,193ZM91.67,116.67a25,25,0,1,1,25-25A25,25,0,0,1,91.67,116.67Z"/></svg>