<svg xmlns="http://www.w3.org/2000/svg" viewBox="0 0 400 400"><defs><style>.a{fill:none;}.b{fill:#87a0f9;}.c{fill:#3b52a2;}</style></defs><title>commissions-promo-icons</title><rect class="a" width="400" height="400"/><path class="b" d="M168,181a42.61,42.61,0,0,1,5-14.5,29.15,29.15,0,0,1,9.83-10.33c4-2.5,9-3.67,15.17-3.83a30.21,30.21,0,0,1,10.5,2.17,26.87,26.87,0,0,1,8.67,6,32.09,32.09,0,0,1,5.67,8.83A29.19,29.19,0,0,1,225.17,180H255a59.66,59.66,0,0,0-4.67-21.5,50,50,0,0,0-11.67-16.83,54.44,54.44,0,0,0-18-11,64.38,64.38,0,0,0-23.17-3.83c-10.83,0-20.33,1.83-28.33,5.67a57.31,57.31,0,0,0-20,15.33,62.65,62.65,0,0,0-11.83,22.67,97.61,97.61,0,0,0-4,27.33v4.5a97.58,97.58,0,0,0,3.83,27.33A60.59,60.59,0,0,0,149,252.17a56.9,56.9,0,0,0,20,15.17c8,3.67,17.5,5.67,28.33,5.67a63.57,63.57,0,0,0,22-3.83,56.85,56.85,0,0,0,18-10.5A50.87,50.87,0,0,0,249.67,243a44.86,44.86,0,0,0,5-19.17H224.83a23.73,23.73,0,0,1-2.5,9.67,24.53,24.53,0,0,1-6,7.67,26.25,26.25,0,0,1-8.67,5,33.09,33.09,0,0,1-10,1.67c-6-.17-11-1.33-14.83-3.83A29.15,29.15,0,0,1,173,233.67,43.55,43.55,0,0,1,168,219a112.33,112.33,0,0,1-1.33-16.67v-4.5A111,111,0,0,1,168,181Z"/><path class="c" d="M200,33.33C108,33.33,33.33,108,33.33,200S108,366.67,200,366.67,366.67,292,366.67,200,292,33.33,200,33.33Zm0,300C126.5,333.33,66.67,273.5,66.67,200S126.5,66.67,200,66.67,333.33,126.5,333.33,200,273.5,333.33,200,333.33Z"/></svg>