<svg xmlns="http://www.w3.org/2000/svg" viewBox="0 0 400 400"><defs><style>.a{fill:none;}.b{fill:#46c32f;}.c{fill:#329a1f;}</style></defs><title>commissions-promo-icons</title><path class="a" d="M0,0H400V400H0V0Z"/><path class="b" d="M216.67,34.17v50.5c56.5,8.17,100,56.5,100,115.33a118.73,118.73,0,0,1-8,42.33L352,267.83A164.6,164.6,0,0,0,366.67,200C366.67,113.67,300.83,42.5,216.67,34.17Z"/><path class="c" d="M200,316.67A116.58,116.58,0,0,1,83.33,200c0-58.83,43.5-107.17,100-115.33V34.17A166.51,166.51,0,0,0,33.33,200c0,92,74.5,166.67,166.5,166.67A166.24,166.24,0,0,0,334.17,298.5L290.83,273A115.84,115.84,0,0,1,200,316.67Z"/></svg>