<svg xmlns="http://www.w3.org/2000/svg" viewBox="0 0 211.42 326.09"><defs><style>.a{fill:#46c32f;}.b{fill:#329a1f;}</style></defs><title>padlock</title><path d="M300,137a72.16,72.16,0,0,0-72.16,72.16v73.55h18.57V209.12a53.59,53.59,0,1,1,107.18,0h0v73.55h18.57V209.12A72.16,72.16,0,0,0,300,137Z" transform="translate(-194.29 -136.95)"/><path class="a" d="M203.38,277.51L290.91,227a18.18,18.18,0,0,1,18.18,0l87.53,50.54a18.18,18.18,0,0,1,9.09,15.74V394.33a18.18,18.18,0,0,1-9.09,15.74l-87.53,50.54a18.18,18.18,0,0,1-18.18,0l-87.53-50.54a18.18,18.18,0,0,1-9.09-15.74V293.25A18.18,18.18,0,0,1,203.38,277.51Z" transform="translate(-194.29 -136.95)"/><polygon class="b" points="32.19 164.39 105.71 121.94 179.23 164.39 179.23 249.28 105.71 291.73 32.19 249.28 32.19 164.39"/><circle class="a" cx="105.71" cy="206.84" r="39.85"/><path d="M313.31,328.57l-12.56-7.25a1.51,1.51,0,0,0-1.51,0l-12.56,7.25a1.51,1.51,0,0,0-.75,1.31v14.5a1.51,1.51,0,0,0,.75,1.31l7.23,4.17v11.82a6.08,6.08,0,0,0,12.16,0V349.86l7.23-4.17a1.51,1.51,0,0,0,.75-1.31v-14.5A1.51,1.51,0,0,0,313.31,328.57Z" transform="translate(-194.29 -136.95)"/></svg>