<svg xmlns="http://www.w3.org/2000/svg" viewBox="0 0 604.3 431.99"><defs><style>.a,.b{fill:#180700;}.a{opacity:0.1;}.c{fill:#ab1333;}.d{fill:#e1032e;}.e{fill:#a8a8a8;}.f{fill:#c1bfbf;}.g{fill:#333;}.h{fill:#b2b2b2;}.i{fill:#dbdbdb;}</style></defs><title>toolbox</title><ellipse class="a" cx="302.15" cy="383.84" rx="302.15" ry="48.15"/><path class="b" d="M393.18,183.94H334a41.84,41.84,0,0,1-41.79-41.79V119.57A41.84,41.84,0,0,1,334,77.78h59.15A41.84,41.84,0,0,1,435,119.57v22.58A41.84,41.84,0,0,1,393.18,183.94ZM334,94.78a24.82,24.82,0,0,0-24.79,24.79v22.58A24.82,24.82,0,0,0,334,166.94h59.15A24.82,24.82,0,0,0,418,142.15V119.57a24.82,24.82,0,0,0-24.79-24.79H334Z" transform="translate(-63.74 -77.78)"/><path class="c" d="M94.37,54.08h411.7a46.13,46.13,0,0,1,46.13,46.13v39.52a0,0,0,0,1,0,0H52.1a0,0,0,0,1,0,0V96.35A42.27,42.27,0,0,1,94.37,54.08Z"/><path class="d" d="M52.1,139.73H552.2a0,0,0,0,1,0,0V377.8a8,8,0,0,1-8,8H60.1a8,8,0,0,1-8-8V139.73A0,0,0,0,1,52.1,139.73Z"/><rect class="e" x="99.97" y="252.89" width="404.36" height="36.58"/><path class="e" d="M558,285.52H173.8a10.09,10.09,0,0,0-10.09,10.09V322.1H568.07V295.61A10.09,10.09,0,0,0,558,285.52Z" transform="translate(-63.74 -77.78)"/><path class="e" d="M173.8,412.4H558a10.09,10.09,0,0,0,10.09-10.09V375.82H163.71v26.48A10.09,10.09,0,0,0,173.8,412.4Z" transform="translate(-63.74 -77.78)"/><polygon class="f" points="99.97 289.47 252.08 289.47 271.24 252.89 99.97 252.89 99.97 289.47"/><path class="f" d="M163.71,295.61V322.1H339.47l19.15-36.58H173.8A10.09,10.09,0,0,0,163.71,295.61Z" transform="translate(-63.74 -77.78)"/><path class="f" d="M163.71,402.31A10.09,10.09,0,0,0,173.8,412.4H292.18l19.15-36.58H163.71v26.48Z" transform="translate(-63.74 -77.78)"/><rect class="g" x="99.97" y="244.32" width="404.36" height="8.57"/><rect class="g" x="99.97" y="289.47" width="404.36" height="8.57"/><path class="h" d="M532.93,217.51V234a12.33,12.33,0,0,0,12.33,12.33h10.49A12.33,12.33,0,0,0,568.07,234V217.51H532.93Z" transform="translate(-63.74 -77.78)"/><path class="i" d="M568.07,217.51V201.06a12.33,12.33,0,0,0-12.33-12.33H545.26a12.33,12.33,0,0,0-12.33,12.33v16.44h35.15Z" transform="translate(-63.74 -77.78)"/><path class="h" d="M163.71,217.51V234A12.33,12.33,0,0,0,176,246.28h10.49A12.33,12.33,0,0,0,198.86,234V217.51H163.71Z" transform="translate(-63.74 -77.78)"/><path class="i" d="M198.86,217.51V201.06a12.33,12.33,0,0,0-12.33-12.33H176a12.33,12.33,0,0,0-12.33,12.33v16.44h35.15Z" transform="translate(-63.74 -77.78)"/></svg>