<?xml version="1.0" encoding="utf-8"?>
<!-- Generator: Adobe Illustrator 18.0.0, SVG Export Plug-In . SVG Version: 6.00 Build 0)  -->
<!DOCTYPE svg PUBLIC "-//W3C//DTD SVG 1.1//EN" "http://www.w3.org/Graphics/SVG/1.1/DTD/svg11.dtd">
<svg version="1.1" id="Layer_1" xmlns="http://www.w3.org/2000/svg" xmlns:xlink="http://www.w3.org/1999/xlink" x="0px" y="0px"
	 viewBox="0 540 800 200" enable-background="new 0 540 800 200" xml:space="preserve">
<path fill="#FFFFFF" d="M756.2,647.2l18.3,31.7h-12.2L748,654.2l-14.3,24.7h-12.2l18.3-31.7l-18.3-31.7h12.2l14.3,24.6l14.3-24.7
	h12.2L756.2,647.2z M435.8,607.6l31.7,18.4v68.2l-31.7,18.2L404,694.2V682l31.7,18.3l21.1-12.2v-16.6l-21.1,12.1L404,665.4v-39.5
	L435.8,607.6z M435.8,619.9l-21.2,12.2v27.2l21.1,12.2l21.1-12.2v-27.2L435.8,619.9z M481,627.6v39.5l31.7,18.2l31.7-18.1l0,0l0,0
	V655l-31.7,18.1l-21.1-12.2v-27.2l21.1-12.2l21.2,12.2l-21.2,12.2V658l31.7-18.2l0,0v-12.2l0,0l-31.7-18.4L481,627.6z M649.6,627.6
	v39.5l31.7,18.2l31.7-18.2v-12.2l-31.7,18.2l-21.1-12.2v-27.2l21.1-12.2l21.2,12.2l-21.2,12.2V658l31.7-18.2l0,0v-12.2l0,0
	l-31.7-18.4L649.6,627.6z M389.6,627.6v51.5l-10.6,6.1v-12.1l-21.1,12.1l-31.7-18.1v-39.5l31.7-18.4L389.6,627.6z M379,633.7
	l-21.1-12.2l-21.1,12.2v27.2l21.1,12.2l21.1-12.2V633.7z M253.1,623.1l-26.4-15.3L195,626.1v53l10.6,6.1v-53l21.1-12.2l21.1,12.2
	v49.9l5.3,3l5.3-3v-49.9l21.1-12.2l21.1,12.2v53l10.6-6.1v-53l-31.7-18.4L253.1,623.1z M169.9,679.1l10.6,6.1V573.6l-10.6,6.1V679.1
	z M625.7,624.1h-53.5v-50.5l-10.6,6.1v99.4l10.6,6.1v-50.5h53.5v50.5l10.6-6.1v-99.3l-10.6-6.1V624.1z"/>
<g>
	<polygon fill="#FFFFFF" points="84.3,639.8 110.5,624.6 136.7,639.8 136.7,670 110.5,685.1 84.3,670 	"/>
	<polygon fill="#FFFFFF" points="25.5,639.9 51.7,624.8 77.8,639.9 77.8,670.1 51.7,685.2 25.5,670.1 	"/>
	<polygon fill="#FFFFFF" points="55,588.8 81.2,573.6 107.3,588.8 107.3,619 81.2,634.1 55,619 	"/>
</g>
</svg>
