<?xml version="1.0" encoding="utf-8"?>
<!-- Generator: Adobe Illustrator 18.0.0, SVG Export Plug-In . SVG Version: 6.00 Build 0)  -->
<!DOCTYPE svg PUBLIC "-//W3C//DTD SVG 1.1//EN" "http://www.w3.org/Graphics/SVG/1.1/DTD/svg11.dtd">
<svg version="1.1" id="Layer_1" xmlns="http://www.w3.org/2000/svg" xmlns:xlink="http://www.w3.org/1999/xlink" x="0px" y="0px"
	 viewBox="0 0 800 1280" enable-background="new 0 0 800 1280" xml:space="preserve">
<path fill="#FFFFFF" d="M756.2,652.1l18.3,31.7h-12.2L748,659.1l-14.3,24.7h-12.2l18.3-31.7l-18.3-31.7h12.2L748,645l14.3-24.7h12.2
	L756.2,652.1z M435.8,612.5l31.7,18.4v68.2l-31.7,18.2L404,699.1v-12.2l31.7,18.3l21.1-12.2v-16.6l-21.1,12.1L404,670.3v-39.5
	L435.8,612.5z M435.8,624.8L414.6,637v27.2l21.1,12.2l21.1-12.2V637L435.8,624.8z M481,632.5V672l31.7,18.2l31.7-18.1l0,0l0,0v-12.2
	L512.7,678l-21.1-12.2v-27.2l21.1-12.2l21.2,12.2l-21.2,12.2v12.1l31.7-18.2v0v-12.2l0,0l-31.7-18.4L481,632.5z M649.6,632.5V672
	l31.7,18.2L713,672v-12.2L681.3,678l-21.1-12.2v-27.2l21.1-12.2l21.2,12.2l-21.2,12.2v12.1l31.7-18.2v0v-12.2l0,0l-31.7-18.4
	L649.6,632.5z M389.6,632.5V684l-10.6,6.1V678l-21.1,12.1L326.2,672v-39.5l31.7-18.4L389.6,632.5z M379,638.6l-21.1-12.2l-21.1,12.2
	v27.2l21.1,12.2l21.1-12.2V638.6z M253.1,628l-26.4-15.3L195,631v53l10.6,6.1v-53l21.1-12.2l21.1,12.2V687l5.3,3l5.3-3v-49.9
	l21.1-12.2l21.1,12.2v53l10.6-6.1v-53l-31.7-18.4L253.1,628z M169.9,684l10.6,6.1V578.5l-10.6,6.1V684z M625.7,629h-53.5v-50.5
	l-10.6,6.1V684l10.6,6.1v-50.5h53.5v50.5l10.6-6.1v-99.3l-10.6-6.1V629z"/>
<g>
	<polygon fill="#E72244" points="84.3,644.7 110.5,629.5 136.7,644.7 136.7,674.9 110.5,690 84.3,674.9 	"/>
	<polygon fill="#7CBA5B" points="25.5,644.8 51.7,629.7 77.8,644.8 77.8,675 51.7,690.1 25.5,675 	"/>
	<polygon fill="#3B52A2" points="55,593.7 81.2,578.5 107.3,593.7 107.3,623.9 81.2,639 55,623.9 	"/>
</g>
</svg>
