<?xml version="1.0" encoding="utf-8"?>
<!-- Generator: Adobe Illustrator 16.0.0, SVG Export Plug-In . SVG Version: 6.00 Build 0)  -->
<!DOCTYPE svg PUBLIC "-//W3C//DTD SVG 1.1//EN" "http://www.w3.org/Graphics/SVG/1.1/DTD/svg11.dtd">
<svg version="1.1" id="Small" xmlns="http://www.w3.org/2000/svg" xmlns:xlink="http://www.w3.org/1999/xlink" x="0px" y="0px"
	 width="600px" height="468px" viewBox="0 63.5 600 468" enable-background="new 0 63.5 600 468" xml:space="preserve">
<g id="Grayscale">
	<g id="without_text_x2C__white_background">
	</g>
	<g id="without_text_x2C__black_background">
	</g>
	<g id="with_text_x2C__white_background">
	</g>
	<g id="with_text_x2C__black_background_1_">
	</g>
</g>
<g id="Color">
	<g id="without_text_x2C__white_background_copy">
	</g>
	<g id="without_text_x2C__black_background_copy">
	</g>
	<g id="with_text_x2C__white_background_copy">
		<g>
			<g>
				<path fill="#282828" stroke="#282828" stroke-miterlimit="10" d="M24.778,488.373h-4.017V385.657h4.017V488.373z"/>
				<path fill="#282828" stroke="#282828" stroke-miterlimit="10" d="M46.472,488.373v-72.03h1.827c0.925,0,1.413,0.488,1.459,1.459
					l0.44,12.128c2.826-4.481,6.148-8.06,9.973-10.739c3.821-2.678,8.046-4.018,12.672-4.018c5.505,0,9.863,1.655,13.078,4.966
					c3.215,3.314,5.31,7.964,6.285,13.954c0.726-3.215,1.859-6.002,3.395-8.365c1.534-2.361,3.325-4.332,5.369-5.917
					c2.045-1.582,4.286-2.75,6.721-3.503c2.435-0.756,4.941-1.134,7.524-1.134c3.458,0,6.584,0.598,9.386,1.785
					c2.801,1.199,5.176,2.94,7.124,5.228c1.948,2.29,3.445,5.113,4.49,8.475c1.048,3.359,1.573,7.23,1.573,11.614v46.098h-3.872
					v-46.098c0-7.793-1.671-13.745-5.005-17.863c-3.335-4.113-8.097-6.17-14.281-6.17c-2.729,0-5.347,0.496-7.854,1.496
					c-2.509,0.998-4.726,2.508-6.648,4.528c-1.923,2.022-3.471,4.529-4.639,7.522c-1.167,2.997-1.753,6.493-1.753,10.483v46.099
					h-3.872v-46.099c0-7.644-1.509-13.561-4.528-17.749c-3.02-4.187-7.451-6.281-13.295-6.281c-4.383,0-8.401,1.362-12.055,4.091
					c-3.653,2.726-6.866,6.476-9.641,11.25v54.79H46.472L46.472,488.373z"/>
				<path fill="#282828" stroke="#282828" stroke-miterlimit="10" d="M199.884,488.373c-0.976,0-1.534-0.512-1.683-1.536
					l-0.731-10.592c-1.995,2.047-4.007,3.883-6.024,5.513c-2.02,1.634-4.139,3.024-6.357,4.168
					c-2.217,1.144-4.614,2.032-7.194,2.662c-2.583,0.634-5.432,0.953-8.549,0.953c-2.29,0-4.554-0.343-6.794-1.024
					c-2.242-0.682-4.264-1.754-6.064-3.215c-1.798-1.461-3.25-3.347-4.344-5.658c-1.095-2.314-1.646-5.103-1.646-8.366
					c0-3.164,0.917-6.037,2.741-8.618c1.826-2.585,4.662-4.81,8.511-6.686c3.845-1.875,8.715-3.36,14.609-4.456
					c5.893-1.096,12.904-1.74,21.04-1.938v-8.548c0-7.206-1.56-12.806-4.676-16.801c-3.113-3.991-7.741-5.987-13.876-5.987
					c-3.653,0-6.795,0.521-9.427,1.569c-2.627,1.048-4.818,2.214-6.573,3.506c-1.755,1.287-3.154,2.459-4.2,3.503
					c-1.049,1.05-1.841,1.571-2.375,1.571c-0.489,0-0.925-0.267-1.313-0.803l-0.659-1.023c3.603-3.698,7.379-6.526,11.325-8.472
					c3.945-1.946,8.447-2.922,13.513-2.922c3.748,0,7.014,0.598,9.79,1.785c2.777,1.199,5.075,2.913,6.9,5.153
					c1.829,2.243,3.181,4.957,4.059,8.146c0.875,3.19,1.315,6.784,1.315,10.773v47.341H199.884L199.884,488.373z M170.078,486.691
					c3.113,0,5.965-0.354,8.545-1.058c2.583-0.706,4.968-1.67,7.159-2.888c2.19-1.219,4.234-2.641,6.136-4.274
					c1.9-1.631,3.726-3.371,5.479-5.224v-20.892c-14.707,0.485-25.581,2.312-32.62,5.478c-7.035,3.164-10.556,7.597-10.556,13.297
					c0,2.676,0.448,4.993,1.352,6.939c0.9,1.945,2.093,3.565,3.578,4.856c1.487,1.29,3.18,2.241,5.079,2.85
					C166.133,486.387,168.078,486.691,170.078,486.691z"/>
				<path fill="#282828" stroke="#282828" stroke-miterlimit="10" d="M242.616,415.174c3.163,0,6.075,0.399,8.728,1.205
					c2.657,0.806,5.006,1.911,7.053,3.322h17.97v1.169c0,0.392-0.146,0.708-0.439,0.95c-0.291,0.243-0.657,0.39-1.097,0.438
					l-12.93,0.514c1.8,1.996,3.19,4.284,4.162,6.862c0.976,2.584,1.463,5.407,1.463,8.475c0,3.46-0.598,6.603-1.791,9.423
					c-1.191,2.827-2.873,5.25-5.037,7.271c-2.169,2.022-4.788,3.581-7.854,4.678c-3.07,1.096-6.476,1.643-10.228,1.643
					c-2.338,0-4.504-0.207-6.503-0.622c-1.995-0.413-3.869-1.011-5.625-1.789c-2.29,1.314-4.127,2.911-5.514,4.786
					c-1.389,1.874-2.081,3.664-2.081,5.369c0,2.288,0.751,4.041,2.264,5.259c1.51,1.218,3.481,2.119,5.916,2.703
					c2.435,0.584,5.227,0.963,8.365,1.133c3.142,0.171,6.357,0.328,9.642,0.475c3.292,0.146,6.502,0.415,9.644,0.803
					c3.144,0.391,5.931,1.095,8.365,2.117c2.432,1.025,4.406,2.485,5.915,4.387c1.509,1.899,2.264,4.432,2.264,7.599
					c0,2.919-0.743,5.732-2.227,8.438c-1.488,2.701-3.616,5.074-6.391,7.117c-2.775,2.049-6.128,3.692-10.047,4.934
					c-3.919,1.242-8.291,1.863-13.112,1.863c-4.92,0-9.267-0.509-13.041-1.535c-3.777-1.021-6.942-2.423-9.496-4.199
					c-2.559-1.777-4.481-3.835-5.774-6.174c-1.289-2.338-1.936-4.817-1.936-7.451c0-3.944,1.339-7.365,4.018-10.264
					c2.677-2.899,6.309-5.127,10.886-6.684c-2.632-0.734-4.726-1.865-6.283-3.396c-1.56-1.535-2.34-3.691-2.34-6.468
					c0-0.974,0.208-2.009,0.623-3.104c0.414-1.097,0.997-2.167,1.752-3.214c0.754-1.045,1.67-2.058,2.741-3.031
					c1.071-0.975,2.286-1.825,3.653-2.556c-3.363-1.946-5.969-4.578-7.819-7.888c-1.85-3.314-2.776-7.185-2.776-11.618
					c0-3.407,0.585-6.512,1.753-9.313c1.17-2.798,2.838-5.209,5.005-7.231c2.166-2.019,4.784-3.589,7.854-4.71
					C235.384,415.732,238.817,415.174,242.616,415.174z M271.765,493.777c0-2.533-0.648-4.564-1.937-6.1
					c-1.292-1.533-2.994-2.725-5.113-3.578c-2.119-0.852-4.566-1.452-7.342-1.79c-2.776-0.341-5.662-0.596-8.655-0.767
					c-2.993-0.169-5.992-0.33-8.986-0.475c-2.997-0.148-5.785-0.461-8.365-0.95c-2.145,0.78-4.102,1.692-5.88,2.739
					c-1.778,1.048-3.312,2.229-4.601,3.543c-1.292,1.316-2.303,2.776-3.033,4.384c-0.732,1.607-1.095,3.361-1.095,5.259
					c0,2.338,0.607,4.53,1.825,6.576c1.215,2.045,2.98,3.807,5.297,5.295c2.312,1.485,5.125,2.668,8.438,3.545
					c3.308,0.877,7.058,1.314,11.249,1.314c3.799,0,7.402-0.464,10.814-1.389c3.404-0.926,6.401-2.228,8.984-3.908
					c2.579-1.681,4.626-3.689,6.136-6.027C271.006,499.11,271.765,496.555,271.765,493.777z M242.616,458.347
					c3.362,0,6.37-0.486,9.021-1.461c2.654-0.976,4.896-2.349,6.721-4.125c1.826-1.779,3.215-3.899,4.165-6.357
					c0.946-2.46,1.423-5.197,1.423-8.219c0-2.969-0.486-5.7-1.463-8.183c-0.972-2.483-2.372-4.602-4.2-6.355
					c-1.826-1.754-4.067-3.118-6.721-4.091c-2.656-0.974-5.637-1.463-8.948-1.463c-3.313,0-6.283,0.489-8.914,1.463
					c-2.63,0.973-4.857,2.337-6.681,4.091c-1.828,1.754-3.229,3.87-4.202,6.355c-0.975,2.484-1.462,5.214-1.462,8.183
					c0,3.021,0.486,5.759,1.462,8.219c0.973,2.458,2.372,4.578,4.202,6.357c1.826,1.776,4.051,3.149,6.681,4.125
					C236.335,457.86,239.303,458.347,242.616,458.347z"/>
				<path fill="#282828" stroke="#282828" stroke-miterlimit="10" d="M313.988,415.174c3.898,0,7.539,0.682,10.924,2.044
					c3.383,1.365,6.342,3.376,8.873,6.027c2.533,2.656,4.518,5.929,5.957,9.826c1.434,3.896,2.156,8.351,2.156,13.369
					c0,1.022-0.439,1.534-1.314,1.534h-54.572c-0.05,0.486-0.072,0.973-0.072,1.46c0,0.486,0,0.973,0,1.463
					c0,5.75,0.682,10.811,2.042,15.192c1.365,4.385,3.288,8.062,5.774,11.035c2.482,2.969,5.488,5.222,9.024,6.756
					c3.531,1.533,7.461,2.302,11.793,2.302c3.848,0,7.186-0.427,10.014-1.28c2.82-0.852,5.184-1.788,7.086-2.811
					c1.898-1.023,3.371-1.962,4.418-2.813c1.045-0.853,1.715-1.278,2.01-1.278c0.387,0,0.701,0.147,0.945,0.438l0.953,1.095
					c-0.977,1.218-2.34,2.412-4.092,3.581c-1.754,1.167-3.762,2.204-6.027,3.104c-2.268,0.902-4.727,1.634-7.379,2.189
					c-2.652,0.562-5.369,0.84-8.145,0.84c-4.92,0-9.365-0.865-13.334-2.594c-3.966-1.727-7.353-4.225-10.152-7.488
					c-2.802-3.263-4.955-7.268-6.465-12.016c-1.508-4.747-2.264-10.165-2.264-16.253c0-5.261,0.717-10.071,2.154-14.429
					c1.437-4.359,3.519-8.121,6.247-11.285c2.726-3.165,6.064-5.625,10.007-7.379C304.492,416.051,308.973,415.174,313.988,415.174z
					 M314.064,418.096c-4.094,0-7.756,0.654-10.996,1.971c-3.24,1.313-6.026,3.167-8.366,5.553
					c-2.338,2.388-4.222,5.259-5.659,8.619c-1.437,3.361-2.375,7.089-2.813,11.177h52.16c0-4.333-0.621-8.193-1.861-11.577
					c-1.246-3.386-2.951-6.248-5.115-8.585c-2.168-2.341-4.738-4.115-7.707-5.333C320.734,418.705,317.518,418.096,314.064,418.096z
					"/>
				<path fill="#282828" stroke="#282828" stroke-miterlimit="10" d="M438.176,488.373h-7.521V438.84h-64.73v49.533h-7.52V385.001
					h7.52v48.215h64.73v-48.215h7.521V488.373z"/>
				<path fill="#282828" stroke="#282828" stroke-miterlimit="10" d="M485.221,414.517c4.094,0,7.891,0.703,11.396,2.117
					c3.506,1.413,6.553,3.47,9.131,6.173c2.578,2.705,4.613,6.026,6.102,9.974c1.484,3.943,2.227,8.474,2.227,13.586
					c0,1.07-0.145,1.803-0.439,2.193c-0.289,0.388-0.779,0.581-1.459,0.581h-52.891v1.388c0,5.457,0.635,10.256,1.896,14.394
					c1.268,4.141,3.07,7.609,5.408,10.411c2.34,2.8,5.162,4.905,8.475,6.316c3.312,1.413,7.014,2.121,11.104,2.121
					c3.65,0,6.816-0.402,9.498-1.204c2.676-0.809,4.93-1.707,6.758-2.706c1.824-0.997,3.271-1.898,4.344-2.704
					c1.07-0.805,1.85-1.205,2.336-1.205c0.637,0,1.121,0.244,1.465,0.731l1.896,2.336c-1.166,1.46-2.717,2.827-4.639,4.094
					c-1.926,1.267-4.066,2.352-6.428,3.251c-2.363,0.901-4.895,1.619-7.598,2.155c-2.705,0.536-5.418,0.804-8.145,0.804
					c-4.969,0-9.498-0.867-13.59-2.592c-4.092-1.729-7.594-4.251-10.52-7.564c-2.922-3.312-5.178-7.365-6.756-12.161
					c-1.586-4.797-2.373-10.288-2.373-16.475c0-5.211,0.742-10.021,2.227-14.425c1.486-4.409,3.627-8.208,6.428-11.4
					c2.803-3.188,6.236-5.686,10.301-7.488C475.445,415.418,480.059,414.517,485.221,414.517z M485.293,419.701
					c-3.75,0-7.109,0.585-10.08,1.757c-2.973,1.167-5.541,2.848-7.709,5.042c-2.166,2.188-3.918,4.821-5.258,7.887
					c-1.338,3.069-2.225,6.501-2.664,10.301h48.215c0-3.896-0.549-7.392-1.646-10.482c-1.094-3.092-2.641-5.71-4.639-7.854
					c-1.996-2.143-4.369-3.785-7.121-4.932C491.635,420.274,488.607,419.701,485.293,419.701z"/>
				<path fill="#282828" stroke="#282828" stroke-miterlimit="10" d="M543.447,451.188l-25.354-35.502h6.65
					c0.684,0,1.195,0.146,1.535,0.438c0.336,0.292,0.633,0.633,0.875,1.023l21.332,30.756c0.244-0.924,0.633-1.778,1.17-2.556
					l19.941-28.129c0.291-0.437,0.607-0.803,0.949-1.095c0.338-0.293,0.779-0.438,1.316-0.438h6.354l-25.348,35.138l26.369,37.551
					h-6.648c-0.684,0-1.217-0.209-1.605-0.624c-0.391-0.412-0.705-0.813-0.947-1.204l-22.062-32.216
					c-0.248,0.976-0.609,1.825-1.096,2.556l-21.043,29.66c-0.336,0.437-0.689,0.853-1.053,1.241
					c-0.367,0.391-0.844,0.586-1.428,0.586h-6.281L543.447,451.188z"/>
			</g>
			<g>
				<polygon fill="#E72244" points="300,218.566 360.303,183.747 420.607,218.566 420.607,288.198 360.303,323.013 300,288.198 				
					"/>
				<polygon fill="#7CBA5B" points="179.395,218.566 239.698,183.747 300,218.566 300,288.198 239.698,323.013 179.395,288.198 				
					"/>
				<polygon fill="#3B52A2" points="239.698,114.122 300,79.307 360.303,114.122 360.303,183.755 300,218.572 239.698,183.755 				
					"/>
				<polygon opacity="0.4" enable-background="new    " points="360.303,183.747 309.457,213.112 309.457,213.112 300,218.566 
					300,288.198 307.795,226.335 				"/>
				<polygon opacity="0.2" enable-background="new    " points="300,230.359 239.698,183.747 300,218.566 				"/>
			</g>
		</g>
	</g>
	<g id="with_text_x2C__black_background">
	</g>
</g>
</svg>
