<?xml version="1.0" encoding="utf-8"?>
<!-- Generator: Adobe Illustrator 16.0.4, SVG Export Plug-In . SVG Version: 6.00 Build 0)  -->
<!DOCTYPE svg PUBLIC "-//W3C//DTD SVG 1.1//EN" "http://www.w3.org/Graphics/SVG/1.1/DTD/svg11.dtd">
<svg version="1.1" id="Small" xmlns="http://www.w3.org/2000/svg" xmlns:xlink="http://www.w3.org/1999/xlink" x="0px" y="0px"
	 width="600px" height="600px" viewBox="0 0 600 600" enable-background="new 0 0 600 600" xml:space="preserve">
<g id="Grayscale">
	<g id="without_text_x2C__white_background">
	</g>
	<g id="without_text_x2C__black_background">
	</g>
	<g id="with_text_x2C__white_background">
	</g>
	<g id="with_text_x2C__black_background_1_">
	</g>
</g>
<g id="Color">
	<g id="without_text_x2C__white_background_copy">
	</g>
	<g id="without_text_x2C__black_background_copy">
	</g>
	<g id="with_text_x2C__white_background_copy">
		<g>
			<g>
				<path fill="#282828" stroke="#282828" stroke-miterlimit="10" d="M108.426,432.86h-2.796v-71.496h2.796V432.86z"/>
				<path fill="#282828" stroke="#282828" stroke-miterlimit="10" d="M123.526,432.86v-50.138h1.272c0.644,0,0.983,0.34,1.016,1.017
					l0.306,8.441c1.967-3.119,4.28-5.609,6.942-7.475c2.66-1.864,5.601-2.797,8.821-2.797c3.832,0,6.865,1.153,9.103,3.457
					c2.238,2.307,3.696,5.543,4.375,9.713c0.505-2.238,1.294-4.178,2.363-5.823c1.068-1.644,2.314-3.016,3.737-4.118
					c1.424-1.102,2.983-1.914,4.678-2.439c1.695-0.526,3.44-0.789,5.238-0.789c2.407,0,4.583,0.416,6.533,1.244
					c1.95,0.834,3.603,2.045,4.959,3.638c1.356,1.594,2.398,3.559,3.125,5.899c0.73,2.338,1.095,5.033,1.095,8.083v32.087h-2.695
					v-32.087c0-5.423-1.163-9.567-3.484-12.433c-2.321-2.863-5.636-4.295-9.94-4.295c-1.899,0-3.722,0.346-5.467,1.041
					c-1.746,0.695-3.289,1.746-4.627,3.152c-1.339,1.408-2.416,3.152-3.229,5.236c-0.813,2.086-1.22,4.52-1.22,7.298v32.087h-2.695
					v-32.087c0-5.321-1.051-9.44-3.152-12.355c-2.102-2.914-5.186-4.372-9.254-4.372c-3.051,0-5.848,0.948-8.391,2.847
					c-2.543,1.898-4.779,4.509-6.711,7.831v38.137H123.526z"/>
				<path fill="#282828" stroke="#282828" stroke-miterlimit="10" d="M230.312,432.86c-0.679,0-1.068-0.355-1.172-1.068
					l-0.508-7.373c-1.389,1.425-2.789,2.703-4.194,3.838c-1.406,1.137-2.881,2.104-4.425,2.9c-1.543,0.796-3.211,1.415-5.007,1.854
					c-1.798,0.44-3.781,0.663-5.951,0.663c-1.594,0-3.17-0.238-4.729-0.713c-1.561-0.475-2.968-1.221-4.221-2.238
					c-1.252-1.017-2.262-2.329-3.024-3.939s-1.146-3.551-1.146-5.823c0-2.202,0.638-4.202,1.908-5.999
					c1.271-1.799,3.245-3.348,5.924-4.653c2.677-1.305,6.067-2.339,10.169-3.102s8.982-1.212,14.645-1.349v-5.95
					c0-5.015-1.086-8.913-3.255-11.694c-2.167-2.779-5.388-4.168-9.659-4.168c-2.543,0-4.73,0.363-6.562,1.092
					c-1.829,0.73-3.354,1.542-4.575,2.441c-1.222,0.896-2.196,1.712-2.924,2.439c-0.73,0.73-1.282,1.094-1.653,1.094
					c-0.34,0-0.644-0.186-0.914-0.559l-0.459-0.713c2.508-2.575,5.137-4.543,7.883-5.897c2.746-1.355,5.88-2.034,9.406-2.034
					c2.609,0,4.882,0.416,6.814,1.244c1.933,0.834,3.533,2.027,4.803,3.586c1.273,1.561,2.214,3.451,2.825,5.67
					c0.609,2.221,0.915,4.723,0.915,7.499v32.952H230.312z M209.565,431.69c2.167,0,4.152-0.246,5.948-0.736
					c1.798-0.491,3.458-1.162,4.983-2.01s2.948-1.838,4.271-2.975c1.323-1.135,2.594-2.347,3.814-3.636v-14.542
					c-10.237,0.338-17.806,1.608-22.706,3.813c-4.897,2.202-7.347,5.288-7.347,9.255c0,1.863,0.312,3.476,0.941,4.83
					c0.626,1.355,1.457,2.482,2.49,3.381c1.035,0.898,2.214,1.56,3.535,1.984C206.819,431.479,208.173,431.69,209.565,431.69z"/>
				<path fill="#282828" stroke="#282828" stroke-miterlimit="10" d="M260.056,381.909c2.202,0,4.229,0.279,6.076,0.839
					c1.849,0.56,3.484,1.33,4.909,2.312h12.508v0.814c0,0.272-0.101,0.493-0.306,0.661c-0.202,0.17-0.457,0.271-0.763,0.305
					l-9,0.357c1.253,1.39,2.22,2.982,2.897,4.777c0.679,1.799,1.018,3.764,1.018,5.899c0,2.408-0.416,4.596-1.246,6.56
					c-0.829,1.967-2,3.654-3.506,5.06c-1.51,1.407-3.333,2.492-5.467,3.256c-2.137,0.763-4.508,1.144-7.12,1.144
					c-1.627,0-3.135-0.145-4.526-0.434c-1.389-0.287-2.693-0.703-3.915-1.245c-1.594,0.915-2.873,2.026-3.838,3.332
					c-0.967,1.304-1.449,2.55-1.449,3.736c0,1.594,0.523,2.814,1.576,3.661c1.051,0.848,2.423,1.475,4.118,1.882
					c1.695,0.406,3.638,0.67,5.823,0.788c2.187,0.119,4.425,0.229,6.711,0.33c2.291,0.102,4.526,0.289,6.713,0.56
					c2.188,0.271,4.128,0.762,5.823,1.474c1.692,0.713,3.066,1.729,4.117,3.052c1.051,1.323,1.576,3.085,1.576,5.289
					c0,2.033-0.517,3.991-1.55,5.874c-1.036,1.88-2.517,3.533-4.449,4.955c-1.932,1.426-4.265,2.57-6.993,3.434
					c-2.728,0.864-5.771,1.297-9.127,1.297c-3.425,0-6.45-0.355-9.077-1.068c-2.629-0.711-4.832-1.687-6.61-2.924
					c-1.781-1.237-3.119-2.669-4.019-4.297c-0.897-1.627-1.347-3.354-1.347-5.187c0-2.745,0.932-5.127,2.796-7.144
					c1.864-2.018,4.392-3.568,7.578-4.652c-1.832-0.511-3.289-1.298-4.373-2.364c-1.086-1.068-1.629-2.569-1.629-4.502
					c0-0.677,0.145-1.398,0.433-2.161c0.288-0.762,0.694-1.508,1.22-2.236c0.525-0.729,1.163-1.433,1.908-2.11
					c0.745-0.679,1.591-1.271,2.543-1.78c-2.341-1.354-4.155-3.186-5.443-5.49c-1.288-2.307-1.932-5.001-1.932-8.087
					c0-2.372,0.407-4.532,1.22-6.483c0.815-1.947,1.976-3.626,3.484-5.033c1.508-1.406,3.33-2.499,5.467-3.279
					C255.022,382.298,257.412,381.909,260.056,381.909z M280.346,436.622c0-1.763-0.451-3.177-1.348-4.245
					c-0.899-1.067-2.084-1.897-3.559-2.491c-1.475-0.592-3.179-1.01-5.111-1.245c-1.932-0.238-3.941-0.415-6.025-0.535
					c-2.083-0.117-4.17-0.229-6.254-0.33c-2.086-0.103-4.027-0.321-5.823-0.661c-1.493,0.543-2.855,1.178-4.093,1.906
					c-1.238,0.73-2.306,1.552-3.203,2.467c-0.899,0.916-1.603,1.933-2.111,3.051c-0.51,1.119-0.762,2.34-0.762,3.66
					c0,1.628,0.422,3.154,1.27,4.578c0.846,1.424,2.075,2.65,3.687,3.686c1.609,1.034,3.568,1.856,5.874,2.467
					c2.303,0.611,4.913,0.916,7.83,0.916c2.644,0,5.152-0.324,7.527-0.967c2.37-0.645,4.456-1.551,6.254-2.721
					c1.795-1.17,3.22-2.568,4.271-4.195C279.818,440.335,280.346,438.556,280.346,436.622z M260.056,411.961
					c2.341,0,4.434-0.339,6.28-1.018c1.847-0.678,3.408-1.634,4.678-2.871c1.271-1.238,2.238-2.714,2.899-4.425
					c0.659-1.712,0.991-3.618,0.991-5.721c0-2.067-0.338-3.967-1.018-5.695c-0.677-1.729-1.651-3.204-2.924-4.424
					c-1.271-1.221-2.831-2.17-4.678-2.848c-1.849-0.678-3.924-1.017-6.229-1.017c-2.306,0-4.373,0.339-6.204,1.017
					s-3.381,1.627-4.651,2.848c-1.272,1.22-2.247,2.694-2.924,4.424c-0.679,1.729-1.018,3.628-1.018,5.695
					c0,2.103,0.338,4.009,1.018,5.721c0.677,1.711,1.651,3.187,2.924,4.425c1.271,1.237,2.82,2.193,4.651,2.871
					C255.684,411.622,257.75,411.961,260.056,411.961z"/>
				<path fill="#282828" stroke="#282828" stroke-miterlimit="10" d="M309.736,381.909c2.713,0,5.247,0.475,7.604,1.423
					c2.354,0.95,4.414,2.35,6.177,4.196c1.763,1.848,3.144,4.126,4.146,6.839c0.998,2.712,1.5,5.813,1.5,9.306
					c0,0.712-0.306,1.068-0.914,1.068h-37.986c-0.035,0.338-0.05,0.677-0.05,1.016s0,0.678,0,1.018
					c0,4.002,0.475,7.525,1.422,10.576c0.95,3.051,2.289,5.611,4.019,7.68c1.728,2.067,3.82,3.635,6.281,4.703
					c2.458,1.067,5.194,1.602,8.21,1.602c2.678,0,5.001-0.297,6.969-0.891c1.963-0.592,3.609-1.245,4.933-1.957
					c1.321-0.712,2.346-1.365,3.075-1.958c0.728-0.593,1.193-0.889,1.398-0.889c0.27,0,0.49,0.102,0.659,0.304l0.664,0.763
					c-0.68,0.848-1.63,1.679-2.849,2.492c-1.221,0.813-2.618,1.534-4.195,2.161c-1.578,0.628-3.29,1.137-5.137,1.525
					c-1.846,0.39-3.736,0.584-5.669,0.584c-3.425,0-6.518-0.602-9.281-1.805c-2.761-1.202-5.118-2.941-7.067-5.213
					c-1.95-2.271-3.449-5.058-4.5-8.363c-1.05-3.305-1.576-7.076-1.576-11.314c0-3.662,0.499-7.009,1.499-10.043
					c1-3.034,2.449-5.653,4.348-7.855c1.897-2.203,4.221-3.916,6.966-5.137S306.245,381.909,309.736,381.909z M309.789,383.943
					c-2.85,0-5.399,0.456-7.654,1.372c-2.255,0.914-4.194,2.205-5.823,3.865c-1.627,1.662-2.939,3.66-3.939,6
					c-1,2.34-1.653,4.933-1.958,7.779h36.308c0-3.016-0.433-5.703-1.297-8.059c-0.866-2.356-2.054-4.348-3.56-5.975
					c-1.51-1.629-3.299-2.864-5.365-3.712C314.432,384.367,312.193,383.943,309.789,383.943z"/>
				<path fill="#282828" stroke="#282828" stroke-miterlimit="10" d="M396.18,432.86h-5.236v-34.477h-45.056v34.477h-5.235v-71.953
					h5.235v33.561h45.056v-33.561h5.236V432.86z"/>
				<path fill="#282828" stroke="#282828" stroke-miterlimit="10" d="M428.927,381.451c2.849,0,5.491,0.491,7.931,1.475
					c2.442,0.983,4.562,2.415,6.357,4.297s3.211,4.194,4.247,6.941c1.033,2.745,1.55,5.898,1.55,9.457
					c0,0.745-0.102,1.255-0.306,1.526c-0.202,0.271-0.543,0.406-1.016,0.406h-36.815v0.966c0,3.798,0.441,7.138,1.32,10.018
					c0.882,2.883,2.137,5.297,3.764,7.247c1.629,1.949,3.594,3.414,5.898,4.397c2.306,0.983,4.882,1.476,7.73,1.476
					c2.541,0,4.744-0.28,6.61-0.838c1.864-0.562,3.432-1.188,4.704-1.883c1.271-0.695,2.279-1.322,3.025-1.882
					c0.744-0.561,1.287-0.839,1.626-0.839c0.442,0,0.78,0.17,1.019,0.509l1.32,1.626c-0.812,1.016-1.891,1.967-3.229,2.849
					c-1.34,0.882-2.83,1.637-4.474,2.263c-1.645,0.628-3.407,1.127-5.289,1.5s-3.771,0.559-5.669,0.559
					c-3.458,0-6.61-0.603-9.459-1.803c-2.848-1.204-5.287-2.959-7.322-5.266c-2.034-2.305-3.604-5.127-4.703-8.465
					c-1.104-3.339-1.652-7.161-1.652-11.468c0-3.626,0.517-6.974,1.55-10.041c1.035-3.068,2.525-5.713,4.474-7.935
					c1.951-2.219,4.341-3.957,7.17-5.212C422.121,382.079,425.332,381.451,428.927,381.451z M428.977,385.061
					c-2.611,0-4.95,0.407-7.017,1.222c-2.068,0.812-3.857,1.982-5.366,3.51c-1.508,1.523-2.728,3.355-3.66,5.49
					c-0.932,2.136-1.549,4.525-1.855,7.17h33.562c0-2.713-0.383-5.145-1.146-7.297s-1.838-3.974-3.229-5.466
					c-1.39-1.492-3.042-2.636-4.956-3.433C433.391,385.46,431.283,385.061,428.977,385.061z"/>
				<path fill="#282828" stroke="#282828" stroke-miterlimit="10" d="M469.455,406.978l-17.647-24.712h4.63
					c0.475,0,0.831,0.101,1.068,0.305c0.234,0.203,0.439,0.44,0.609,0.712l14.848,21.408c0.17-0.643,0.44-1.238,0.814-1.779
					l13.881-19.579c0.203-0.304,0.423-0.559,0.66-0.762c0.237-0.204,0.543-0.305,0.917-0.305h4.423l-17.644,24.458l18.355,26.137
					h-4.628c-0.475,0-0.846-0.145-1.118-0.434c-0.271-0.286-0.49-0.566-0.659-0.838l-15.357-22.424
					c-0.172,0.679-0.424,1.271-0.763,1.778l-14.647,20.646c-0.234,0.305-0.48,0.594-0.733,0.864
					c-0.255,0.272-0.587,0.407-0.993,0.407h-4.373L469.455,406.978z"/>
			</g>
			<g>
				<polygon fill="#E72244" points="300,245.056 341.975,220.82 383.951,245.056 383.951,293.525 341.975,317.759 300,293.525 				
					"/>
				<polygon fill="#7CBA5B" points="216.05,245.056 258.025,220.82 300,245.056 300,293.525 258.025,317.759 216.05,293.525 				"/>
				<polygon fill="#3B52A2" points="258.025,172.356 300,148.122 341.975,172.356 341.975,220.825 300,245.061 258.025,220.825 				
					"/>
				<polygon opacity="0.4" points="341.975,220.82 306.583,241.26 306.583,241.26 300,245.056 300,293.525 305.425,250.464 				"/>
				<polygon opacity="0.2" points="300,253.265 258.025,220.82 300,245.056 				"/>
			</g>
		</g>
	</g>
	<g id="with_text_x2C__black_background">
	</g>
</g>
</svg>
