<?xml version="1.0" encoding="utf-8"?>
<!-- Generator: Adobe Illustrator 18.0.0, SVG Export Plug-In . SVG Version: 6.00 Build 0)  -->
<!DOCTYPE svg PUBLIC "-//W3C//DTD SVG 1.1//EN" "http://www.w3.org/Graphics/SVG/1.1/DTD/svg11.dtd">
<svg version="1.1" id="Layer_1" xmlns="http://www.w3.org/2000/svg" xmlns:xlink="http://www.w3.org/1999/xlink" x="0px" y="0px"
	 viewBox="0 0 1920 566" enable-background="new 0 0 1920 566" xml:space="preserve">
<path fill="#333333" d="M1814.8,312l43.9,76.1h-29.3l-34.3-59.2l-34.3,59.2h-29.3l43.9-76.1l-43.9-76.1h29.3l34.3,59.2l34.3-59.2
	h29.3L1814.8,312z M1045.8,217l76.1,44.1v163.7l-76.1,43.6l-76.1-43.6v-29.3l76.1,43.9l50.7-29.3v-39.9l-50.7,29.1l-76.1-43.6v-94.7
	L1045.8,217z M1045.8,246.5L995,275.8v65.4l50.7,29.3l50.7-29.3v-65.4L1045.8,246.5z M1154.3,265v94.7l76.1,43.6l76-43.5l0,0
	l0.1-0.1v-29.3l-76.1,43.9l-50.7-29.3v-65.4l50.7-29.3l50.8,29.3l-50.8,29.3v29l76.1-43.6v-0.1V265V265l-76.1-44.1L1154.3,265z
	 M1559,265v94.7l76.1,43.6l76.1-43.6v-29.3l-76.1,43.9l-50.7-29.3v-65.4l50.7-29.3l50.8,29.3l-50.8,29.3v29l76.1-43.6v-0.1V265V265
	l-76.1-44.1L1559,265z M935,265v123.6l-25.4,14.7v-29.1l-50.7,29.1l-76.1-43.6V265l76.1-44.1L935,265z M909.6,279.6l-50.7-29.3
	l-50.7,29.3V345l50.7,29.3l50.7-29.3V279.6z M607.4,254.1l-63.4-36.7l-76.1,44.1v127.1l25.4,14.7V276.1l50.7-29.3l50.7,29.3v119.8
	l12.7,7.3l12.7-7.3V276.1l50.7-29.3l50.7,29.3v127.1l25.4-14.7V261.4l-76.1-44.1L607.4,254.1z M407.7,388.6l25.4,14.7V135.5
	l-25.4,14.7V388.6z M1501.6,256.7h-128.3V135.5l-25.4,14.7v238.4l25.4,14.7V282.1h128.3v121.1l25.4-14.7V150.2l-25.4-14.7V256.7z"/>
<path fill="#333333" d="M202.4,294.2l62.8-36.3l62.8,36.3v72.5l-62.8,36.3l-62.8-36.3V294.2z M61.3,367l62.8,36.3l62.8-36.3v-72.5
	l-62.8-36.3l-62.8,36.3V367z M132,244.3l62.8,36.3l62.8-36.3v-72.5l-62.8-36.3L132,171.8V244.3z"/>
</svg>
