<?xml version="1.0" encoding="utf-8"?>
<!-- Generator: Adobe Illustrator 16.0.0, SVG Export Plug-In . SVG Version: 6.00 Build 0)  -->
<!DOCTYPE svg PUBLIC "-//W3C//DTD SVG 1.1//EN" "http://www.w3.org/Graphics/SVG/1.1/DTD/svg11.dtd">
<svg version="1.1" id="Layer_1" xmlns="http://www.w3.org/2000/svg" xmlns:xlink="http://www.w3.org/1999/xlink" x="0px" y="0px"
	 width="32px" height="32px" viewBox="0 0 32 32" enable-background="new 0 0 32 32" xml:space="preserve">
<path d="M19.912,5.594c-2.645,0-3.484-1.018-6.131-1.018c-1.428,0-2.805,0.338-3.523,0.548V4.261c0-0.688-0.557-1.244-1.242-1.244
	c-0.688,0-1.244,0.556-1.244,1.244c0,5.9,0,23.6,0,23.6c0,0.619,0.557,1.122,1.244,1.122c0.686,0,1.242-0.503,1.242-1.122V16.692
	c0.719-0.155,2.096-0.405,3.523-0.405c2.646,0,3.486,0.832,6.131,0.832c2.641,0,4.316-0.832,4.316-0.832V4.856
	C24.229,4.856,22.57,5.594,19.912,5.594z"/>
</svg>
