<?xml version="1.0" encoding="utf-8"?>
<!-- Generator: Adobe Illustrator 16.0.0, SVG Export Plug-In . SVG Version: 6.00 Build 0)  -->
<!DOCTYPE svg PUBLIC "-//W3C//DTD SVG 1.1//EN" "http://www.w3.org/Graphics/SVG/1.1/DTD/svg11.dtd">
<svg version="1.1" id="Layer_1" xmlns="http://www.w3.org/2000/svg" xmlns:xlink="http://www.w3.org/1999/xlink" x="0px" y="0px"
	 width="32px" height="32px" viewBox="0 0 32 32" enable-background="new 0 0 32 32" xml:space="preserve">
<path d="M27.45,5.711C24.279,2.559,19.152,2.572,16,5.742c-3.151-3.17-8.278-3.183-11.45-0.031
	c-3.168,3.152-3.244,8.237,0.242,11.723C8.684,21.326,16,28.644,16,28.644s7.316-7.318,11.207-11.209
	C30.694,13.948,30.618,8.864,27.45,5.711z M25.506,15.733L16,25.241l-9.506-9.508c-1.235-1.235-1.914-2.788-1.912-4.373
	c0.002-1.476,0.594-2.877,1.666-3.943c1.073-1.067,2.499-1.655,4.013-1.655c1.525,0,2.958,0.595,4.033,1.677L16,9.155l1.706-1.716
	c1.076-1.081,2.508-1.677,4.034-1.677c1.515,0,2.94,0.588,4.014,1.656c1.071,1.066,1.663,2.467,1.665,3.944
	C27.42,12.946,26.741,14.498,25.506,15.733z"/>
</svg>
