<?xml version="1.0" encoding="UTF-8" standalone="no"?>
<!-- Generator: Adobe Illustrator 16.0.0, SVG Export Plug-In . SVG Version: 6.00 Build 0)  -->

<svg
   xmlns:dc="http://purl.org/dc/elements/1.1/"
   xmlns:cc="http://creativecommons.org/ns#"
   xmlns:rdf="http://www.w3.org/1999/02/22-rdf-syntax-ns#"
   xmlns:svg="http://www.w3.org/2000/svg"
   xmlns="http://www.w3.org/2000/svg"
   xmlns:sodipodi="http://sodipodi.sourceforge.net/DTD/sodipodi-0.dtd"
   xmlns:inkscape="http://www.inkscape.org/namespaces/inkscape"
   version="1.1"
   id="Layer_1"
   x="0px"
   y="0px"
   width="32px"
   height="32px"
   viewBox="0 0 32 32"
   enable-background="new 0 0 32 32"
   xml:space="preserve"
   inkscape:version="0.91 r13725"
   sodipodi:docname="image.svg"><metadata
     id="metadata9"><rdf:RDF><cc:Work
         rdf:about=""><dc:format>image/svg+xml</dc:format><dc:type
           rdf:resource="http://purl.org/dc/dcmitype/StillImage" /><dc:title></dc:title></cc:Work></rdf:RDF></metadata><defs
     id="defs7" /><sodipodi:namedview
     pagecolor="#ffffff"
     bordercolor="#666666"
     borderopacity="1"
     objecttolerance="10"
     gridtolerance="10"
     guidetolerance="10"
     inkscape:pageopacity="0"
     inkscape:pageshadow="2"
     inkscape:window-width="729"
     inkscape:window-height="480"
     id="namedview5"
     showgrid="false"
     inkscape:zoom="7.375"
     inkscape:cx="19.065697"
     inkscape:cy="9.5760601"
     inkscape:window-x="3588"
     inkscape:window-y="413"
     inkscape:window-maximized="0"
     inkscape:current-layer="Layer_1" /><path
     d="m 17.042,11.955 -2.602,4.638 -2.329,-3.41 -5.035,8.334 4.604,0 6.125,0 4.602,0 -5.365,-9.562 z"
     id="path4162" /><path
     d="m 8.542,13.849 -0.65,-1.124 0.65,-1.125 1.297,0 0.648,1.125 -0.648,1.124 -1.297,0 z"
     id="path4160" /><path
     d="m 24.67,11.355 0,12.224 -19.858,0 0,-14.043 19.077,0 1.254,-1.254 -20.331,0 0,0 -1.253,0 0,0 0,1.254 0,14.043 0,1.254 1.253,0 19.858,0 0.385,0 0.871,0 0,-13.478 z"
     id="path4158"
     inkscape:connector-curvature="0"
     sodipodi:nodetypes="ccccccccccccccccccc" /></svg>