<?xml version="1.0" encoding="utf-8"?>
<!-- Generator: Adobe Illustrator 16.0.0, SVG Export Plug-In . SVG Version: 6.00 Build 0)  -->
<!DOCTYPE svg PUBLIC "-//W3C//DTD SVG 1.1//EN" "http://www.w3.org/Graphics/SVG/1.1/DTD/svg11.dtd">
<svg version="1.1" id="Layer_1" xmlns="http://www.w3.org/2000/svg" xmlns:xlink="http://www.w3.org/1999/xlink" x="0px" y="0px"
	 width="32px" height="32px" viewBox="0 0 32 32" enable-background="new 0 0 32 32" xml:space="preserve">
<path d="M16,1.275c-5.162,0-9.346,4.185-9.346,9.346c0,1.728,0.721,3.634,1.269,4.727C9.715,18.918,16,30.725,16,30.725
	s6.267-11.812,8.062-15.377c0.551-1.093,1.285-2.999,1.285-4.727C25.346,5.46,21.161,1.275,16,1.275z M16,15.402
	c-2.641,0-4.78-2.141-4.78-4.781S13.359,5.84,16,5.84c2.639,0,4.78,2.141,4.78,4.781S18.639,15.402,16,15.402z"/>
</svg>
