<?xml version="1.0" encoding="utf-8"?>
<!-- Generator: Adobe Illustrator 16.0.0, SVG Export Plug-In . SVG Version: 6.00 Build 0)  -->
<!DOCTYPE svg PUBLIC "-//W3C//DTD SVG 1.1//EN" "http://www.w3.org/Graphics/SVG/1.1/DTD/svg11.dtd">
<svg version="1.1" id="Layer_1" xmlns="http://www.w3.org/2000/svg" xmlns:xlink="http://www.w3.org/1999/xlink" x="0px" y="0px"
	 width="32px" height="32px" viewBox="0 0 32 32" enable-background="new 0 0 32 32" xml:space="preserve">
<path d="M28.425,9.121c0,0.395-0.318,0.713-0.711,0.713H4.286c-0.393,0-0.711-0.318-0.711-0.713V6.514
	c0-0.395,0.318-0.713,0.711-0.713h23.428c0.393,0,0.711,0.318,0.711,0.713V9.121z"/>
<path d="M28.425,17.305c0,0.393-0.318,0.711-0.711,0.711H4.286c-0.393,0-0.711-0.318-0.711-0.711v-2.609
	c0-0.393,0.318-0.711,0.711-0.711h23.428c0.393,0,0.711,0.318,0.711,0.711V17.305z"/>
<path d="M28.425,25.486c0,0.395-0.318,0.713-0.711,0.713H4.286c-0.393,0-0.711-0.318-0.711-0.713v-2.607
	c0-0.395,0.318-0.713,0.711-0.713h23.428c0.393,0,0.711,0.318,0.711,0.713V25.486z"/>
</svg>
