<?xml version="1.0" encoding="utf-8"?>
<!-- Generator: Adobe Illustrator 16.0.0, SVG Export Plug-In . SVG Version: 6.00 Build 0)  -->
<!DOCTYPE svg PUBLIC "-//W3C//DTD SVG 1.1//EN" "http://www.w3.org/Graphics/SVG/1.1/DTD/svg11.dtd">
<svg version="1.1" id="Layer_1" xmlns="http://www.w3.org/2000/svg" xmlns:xlink="http://www.w3.org/1999/xlink" x="0px" y="0px"
	 width="32px" height="32px" viewBox="0 0 32 32" enable-background="new 0 0 32 32" xml:space="preserve">
<path d="M5.442,12.149c0-4.45,3.754-9.787,11.197-9.787c5.982,0,9.918,4.328,9.918,8.976c0,6.146-3.416,10.736-8.454,10.736
	c-1.69,0-3.282-0.914-3.826-1.952c0,0-0.91,3.609-1.103,4.306c-0.678,2.462-2.673,4.926-2.828,5.128
	c-0.107,0.14-0.347,0.096-0.372-0.091c-0.044-0.313-0.552-3.42,0.047-5.953c0.301-1.271,2.016-8.537,2.016-8.537
	s-0.501-1-0.501-2.479c0-2.321,1.347-4.055,3.022-4.055c1.425,0,2.112,1.069,2.112,2.353c0,1.433-0.911,3.574-1.383,5.56
	c-0.393,1.662,0.833,3.017,2.473,3.017c2.968,0,4.967-3.812,4.967-8.329c0-3.434-2.312-6.005-6.518-6.005
	c-4.752,0-7.714,3.545-7.714,7.504c0,1.364,0.402,2.329,1.033,3.073c0.29,0.342,0.331,0.479,0.226,0.873
	c-0.076,0.289-0.248,0.982-0.319,1.258c-0.104,0.396-0.427,0.538-0.784,0.391C6.463,17.241,5.442,14.845,5.442,12.149z"/>
</svg>
