<?xml version="1.0" encoding="utf-8"?>
<!-- Generator: Adobe Illustrator 16.0.0, SVG Export Plug-In . SVG Version: 6.00 Build 0)  -->
<!DOCTYPE svg PUBLIC "-//W3C//DTD SVG 1.1//EN" "http://www.w3.org/Graphics/SVG/1.1/DTD/svg11.dtd">
<svg version="1.1" id="Layer_1" xmlns="http://www.w3.org/2000/svg" xmlns:xlink="http://www.w3.org/1999/xlink" x="0px" y="0px"
	 width="32px" height="32px" viewBox="0 0 32 32" enable-background="new 0 0 32 32" xml:space="preserve">
<path d="M27.003,22.724c-1.63-0.94-3.633-0.645-4.927,0.596l-11-6.35c0.16-0.654,0.156-1.328,0.001-1.963l10.958-6.328
	c1.294,1.24,3.297,1.536,4.928,0.596c1.976-1.141,2.653-3.669,1.511-5.644c-1.141-1.977-3.667-2.653-5.644-1.512
	c-1.629,0.94-2.374,2.824-1.946,4.563L9.93,13.007c-0.236-0.227-0.504-0.431-0.801-0.603c-1.976-1.141-4.502-0.463-5.645,1.512
	c-1.14,1.977-0.462,4.504,1.513,5.645c1.63,0.94,3.633,0.645,4.926-0.598l11.001,6.353c-0.428,1.739,0.317,3.624,1.946,4.563
	c1.977,1.143,4.503,0.465,5.644-1.513C29.656,26.392,28.978,23.865,27.003,22.724z"/>
</svg>
