<?xml version="1.0" encoding="utf-8"?>
<!-- Generator: Adobe Illustrator 16.0.0, SVG Export Plug-In . SVG Version: 6.00 Build 0)  -->
<!DOCTYPE svg PUBLIC "-//W3C//DTD SVG 1.1//EN" "http://www.w3.org/Graphics/SVG/1.1/DTD/svg11.dtd">
<svg version="1.1" id="Layer_1" xmlns="http://www.w3.org/2000/svg" xmlns:xlink="http://www.w3.org/1999/xlink" x="0px" y="0px"
	 width="32px" height="32px" viewBox="0 0 32 32" enable-background="new 0 0 32 32" xml:space="preserve">
<g>
	<path d="M7.536,11.351l1.749,15.835l0,0c0,1.222,0.989,2.211,2.209,2.211h9.017c1.223,0,2.212-0.989,2.212-2.211
		c0-0.012-0.003-0.022-0.003-0.034l1.744-15.801H7.536z"/>
	<path d="M27.131,9.796c-0.032-1.969-1.636-3.556-3.614-3.556h-2.519l-2.096-3.63V2.604h-5.808V2.61l-2.093,3.63H8.48
		c-1.976,0-3.579,1.587-3.611,3.556H27.131z M14.135,4.397h3.73l1.063,1.843h-5.857L14.135,4.397z"/>
</g>
</svg>
