<?xml version="1.0" encoding="utf-8"?>
<!-- Generator: Adobe Illustrator 16.0.0, SVG Export Plug-In . SVG Version: 6.00 Build 0)  -->
<!DOCTYPE svg PUBLIC "-//W3C//DTD SVG 1.1//EN" "http://www.w3.org/Graphics/SVG/1.1/DTD/svg11.dtd">
<svg version="1.1" id="Layer_1" xmlns="http://www.w3.org/2000/svg" xmlns:xlink="http://www.w3.org/1999/xlink" x="0px" y="0px"
	 width="32px" height="32px" viewBox="0 0 32 32" enable-background="new 0 0 32 32" xml:space="preserve">
<path d="M10.434,13.476h-3.08V9.469c1.101-0.359,2.043-0.873,2.829-1.541c0.785-0.67,1.416-1.473,1.89-2.411
	c0.474-0.939,0.802-2.132,0.982-3.581h3.984v7.125h6.68v4.415h-6.68v7.215c0,1.632,0.086,2.678,0.259,3.141
	c0.174,0.464,0.495,0.834,0.964,1.109c0.622,0.374,1.334,0.561,2.135,0.561c1.424,0,2.841-0.463,4.25-1.389v4.423
	c-1.203,0.565-2.291,0.961-3.264,1.189c-0.974,0.226-2.027,0.34-3.16,0.34c-1.285,0-2.42-0.162-3.409-0.487
	c-0.988-0.323-1.83-0.786-2.526-1.386c-0.698-0.602-1.183-1.241-1.451-1.916c-0.269-0.677-0.403-1.656-0.403-2.941V13.476z"/>
</svg>
