<?xml version="1.0" encoding="utf-8"?>
<!-- Generator: Adobe Illustrator 16.0.0, SVG Export Plug-In . SVG Version: 6.00 Build 0)  -->
<!DOCTYPE svg PUBLIC "-//W3C//DTD SVG 1.1//EN" "http://www.w3.org/Graphics/SVG/1.1/DTD/svg11.dtd">
<svg version="1.1" id="Layer_1" xmlns="http://www.w3.org/2000/svg" xmlns:xlink="http://www.w3.org/1999/xlink" x="0px" y="0px"
	 width="32px" height="32px" viewBox="0 0 32 32" enable-background="new 0 0 32 32" xml:space="preserve">
<path d="M10.267,22.696c-2.623-0.05-4.836-1.781-5.599-4.162c0.939,0.179,1.863,0.127,2.707-0.104
	c-2.883-0.578-4.871-3.176-4.808-5.952c0.808,0.448,1.733,0.719,2.715,0.75C2.613,11.445,1.858,7.92,3.428,5.226
	c2.956,3.628,7.372,6.014,12.353,6.264C14.907,7.74,17.751,4.13,21.617,4.13c1.726,0,3.282,0.728,4.376,1.893
	c1.364-0.269,2.647-0.768,3.806-1.455c-0.448,1.4-1.397,2.575-2.635,3.316c1.212-0.145,2.367-0.468,3.442-0.944
	c-0.804,1.202-1.82,2.258-2.99,3.103c0.379,8.43-5.908,17.828-17.035,17.828c-3.384,0-6.534-0.992-9.188-2.693
	C4.573,25.552,7.747,24.671,10.267,22.696z"/>
</svg>
