<?xml version="1.0" encoding="utf-8"?>
<!-- Generator: Adobe Illustrator 19.0.0, SVG Export Plug-In . SVG Version: 6.00 Build 0)  -->
<!DOCTYPE svg PUBLIC "-//W3C//DTD SVG 1.1//EN" "http://www.w3.org/Graphics/SVG/1.1/DTD/svg11.dtd">
<svg version="1.1" id="Layer_1" xmlns="http://www.w3.org/2000/svg" xmlns:xlink="http://www.w3.org/1999/xlink" x="0px" y="0px"
	 viewBox="815 114 1598 566" style="enable-background:new 815 114 1598 566;" xml:space="preserve">
<style type="text/css">
	.st0{fill:#333333;}
</style>
<path class="st0" d="M2295.6,426l43.9,76.1h-29.3l-34.3-59.2l-34.3,59.2h-29.3l43.9-76.1l-43.9-76.1h29.3l34.3,59.2l34.3-59.2h29.3
	L2295.6,426z M1526.6,331l76.1,44.1v163.7l-76.1,43.6l-76.1-43.6v-29.3l76.1,43.9l50.7-29.3v-39.9l-50.7,29.1l-76.1-43.6V375
	L1526.6,331z M1526.6,360.5l-50.8,29.3v65.4l50.7,29.3l50.7-29.3v-65.4L1526.6,360.5z M1635.1,379v94.7l76.1,43.6l76-43.5l0,0
	l0.1-0.1v-29.3l-76.1,43.9l-50.7-29.3v-65.4l50.7-29.3l50.8,29.3l-50.8,29.3v29l76.1-43.6v-0.1V379l0,0l-76.1-44.1L1635.1,379z
	 M2039.8,379v94.7l76.1,43.6l76.1-43.6v-29.3l-76.1,43.9l-50.7-29.3v-65.4l50.7-29.3l50.8,29.3l-50.8,29.3v29l76.1-43.6v-0.1V379
	l0,0l-76.1-44.1L2039.8,379z M1415.8,379v123.6l-25.4,14.7v-29.1l-50.7,29.1l-76.1-43.6V379l76.1-44.1L1415.8,379z M1390.4,393.6
	l-50.7-29.3l-50.7,29.3V459l50.7,29.3l50.7-29.3V393.6z M1088.2,368.1l-63.4-36.7l-76.1,44.1v127.1l25.4,14.7V390.1l50.7-29.3
	l50.7,29.3v119.8l12.7,7.3l12.7-7.3V390.1l50.7-29.3l50.7,29.3v127.1l25.4-14.7V375.4l-76.1-44.1L1088.2,368.1z M888.5,502.6
	l25.4,14.7V249.5l-25.4,14.7V502.6z M1982.4,370.7h-128.3V249.5l-25.4,14.7v238.4l25.4,14.7V396.1h128.3v121.1l25.4-14.7V264.2
	l-25.4-14.7V370.7z"/>
</svg>
