<?xml version="1.0" encoding="utf-8"?>
<!-- Generator: Adobe Illustrator 19.0.0, SVG Export Plug-In . SVG Version: 6.00 Build 0)  -->
<!DOCTYPE svg PUBLIC "-//W3C//DTD SVG 1.1//EN" "http://www.w3.org/Graphics/SVG/1.1/DTD/svg11.dtd">
<svg version="1.1" id="Layer_1" xmlns="http://www.w3.org/2000/svg" xmlns:xlink="http://www.w3.org/1999/xlink" x="0px" y="0px"
	 viewBox="480 -3 1920 566" style="enable-background:new 480 -3 1920 566;" xml:space="preserve">
<style type="text/css">
	.st0{fill:#FFFFFF;}
	.st1{fill:#E72244;}
	.st2{fill:#7CBA5B;}
	.st3{fill:#3B52A2;}
</style>
<path class="st0" d="M2294.8,309l43.9,76.1h-29.3l-34.3-59.2l-34.3,59.2h-29.3l43.9-76.1l-43.9-76.1h29.3l34.3,59.2l34.3-59.2h29.3
	L2294.8,309z M1525.8,214l76.1,44.1v163.7l-76.1,43.6l-76.1-43.6v-29.3l76.1,43.9l50.7-29.3v-39.9l-50.7,29.1l-76.1-43.6V258
	L1525.8,214z M1525.8,243.5l-50.8,29.3v65.4l50.7,29.3l50.7-29.3v-65.4L1525.8,243.5z M1634.3,262v94.7l76.1,43.6l76-43.5l0,0
	l0.1-0.1v-29.3l-76.1,43.9l-50.7-29.3v-65.4l50.7-29.3l50.8,29.3l-50.8,29.3v29l76.1-43.6v-0.1V262l0,0l-76.1-44.1L1634.3,262z
	 M2039,262v94.7l76.1,43.6l76.1-43.6v-29.3l-76.1,43.9l-50.7-29.3v-65.4l50.7-29.3l50.8,29.3l-50.8,29.3v29l76.1-43.6v-0.1V262l0,0
	l-76.1-44.1L2039,262z M1415,262v123.6l-25.4,14.7v-29.1l-50.7,29.1l-76.1-43.6V262l76.1-44.1L1415,262z M1389.6,276.6l-50.7-29.3
	l-50.7,29.3V342l50.7,29.3l50.7-29.3V276.6z M1087.4,251.1l-63.4-36.7l-76.1,44.1v127.1l25.4,14.7V273.1l50.7-29.3l50.7,29.3v119.8
	l12.7,7.3l12.7-7.3V273.1l50.7-29.3l50.7,29.3v127.1l25.4-14.7V258.4l-76.1-44.1L1087.4,251.1z M887.7,385.6l25.4,14.7V132.5
	l-25.4,14.7V385.6z M1981.6,253.7h-128.3V132.5l-25.4,14.7v238.4l25.4,14.7V279.1h128.3v121.1l25.4-14.7V147.2l-25.4-14.7V253.7z"/>
<g>
	<polygon class="st1" points="682.4,291.2 745.2,254.9 808,291.2 808,363.7 745.2,399.9 682.4,363.7 	"/>
	<polygon class="st2" points="541.3,291.5 604.1,255.2 666.8,291.5 666.8,364 604.1,400.2 541.3,364 	"/>
	<polygon class="st3" points="612,168.8 674.8,132.5 737.6,168.8 737.6,241.3 674.8,277.5 612,241.3 	"/>
</g>
</svg>
